{"glyphs":{"0":{"ha":806,"x_min":35,"x_max":771,"o":"m 771 502 q 743 274 771 371 q 665 114 715 177 q 548 20 615 51 q 401 -11 480 -11 q 256 20 323 -11 q 140 114 189 51 q 63 274 90 177 q 35 502 35 371 q 63 731 35 634 q 140 890 90 827 q 256 984 189 953 q 401 1015 323 1015 q 548 984 480 1015 q 665 890 615 953 q 743 731 715 827 q 771 502 771 634 m 594 502 q 578 683 594 611 q 535 797 562 754 q 474 856 508 839 q 401 873 439 873 q 330 856 365 873 q 269 797 296 839 q 227 683 243 754 q 212 502 212 611 q 227 322 212 393 q 269 208 243 250 q 330 148 296 165 q 401 131 365 131 q 474 148 439 131 q 535 208 508 165 q 578 322 562 250 q 594 502 594 393 z "},"1":{"ha":806,"x_min":115,"x_max":742,"o":"m 187 128 l 390 128 l 390 714 q 392 785 390 748 l 248 665 q 230 654 239 657 q 211 651 220 651 q 186 657 197 651 q 169 671 174 663 l 115 745 l 421 1006 l 562 1006 l 562 128 l 742 128 l 742 0 l 187 0 l 187 128 z "},"2":{"ha":806,"x_min":58,"x_max":747,"o":"m 418 1015 q 545 995 488 1015 q 644 937 603 974 q 708 847 685 899 q 731 729 731 794 q 714 626 731 674 q 670 536 698 579 q 606 453 643 493 q 529 371 569 413 l 303 140 q 368 155 336 149 q 429 160 400 160 l 687 160 q 731 144 715 160 q 747 103 747 128 l 747 0 l 58 0 l 58 57 q 66 93 58 74 q 89 128 73 112 l 394 433 q 462 508 432 472 q 513 578 492 543 q 544 648 533 613 q 555 724 555 684 q 544 787 555 760 q 515 833 534 815 q 468 861 495 852 q 408 871 442 871 q 307 840 347 871 q 251 756 267 808 q 228 718 243 729 q 189 706 213 706 q 166 708 178 706 l 76 724 q 116 851 86 797 q 191 942 146 906 q 293 997 235 978 q 418 1015 351 1015 z "},"3":{"ha":806,"x_min":63,"x_max":757,"o":"m 434 1015 q 559 995 503 1015 q 655 941 615 976 q 716 858 694 906 q 737 756 737 811 q 726 672 737 708 q 695 608 715 635 q 645 563 674 581 q 578 531 615 544 q 713 444 668 503 q 757 298 757 386 q 729 165 757 223 q 654 68 701 108 q 545 9 607 29 q 413 -11 483 -11 q 281 6 338 -11 q 183 58 225 24 q 113 141 142 92 q 63 255 83 190 l 138 286 q 178 294 158 294 q 210 287 196 294 q 232 265 224 279 q 259 217 244 240 q 295 175 274 193 q 344 145 316 156 q 411 133 372 133 q 488 148 455 133 q 542 185 520 162 q 575 236 564 208 q 585 292 585 264 q 578 358 585 328 q 546 408 570 388 q 476 441 522 429 q 354 453 431 453 l 354 575 q 459 587 417 576 q 525 618 501 598 q 560 665 550 638 q 569 726 569 693 q 531 834 569 798 q 424 871 492 871 q 323 839 363 871 q 267 756 283 806 q 244 718 258 729 q 206 706 229 706 q 182 708 194 706 l 92 724 q 132 851 102 797 q 207 942 162 906 q 309 997 251 978 q 434 1015 367 1015 z "},"4":{"ha":806,"x_min":16,"x_max":781,"o":"m 654 378 l 781 378 l 781 279 q 772 255 781 265 q 745 245 763 245 l 654 245 l 654 0 l 504 0 l 504 245 l 81 245 q 50 256 63 245 q 33 283 37 267 l 16 369 l 492 1005 l 654 1005 l 654 378 m 504 707 q 506 755 504 729 q 510 808 507 781 l 199 378 l 504 378 l 504 707 z "},"5":{"ha":806,"x_min":53,"x_max":721,"o":"m 687 931 q 664 872 687 894 q 586 849 640 849 l 310 849 l 274 639 q 398 653 342 653 q 537 629 477 653 q 638 564 597 606 q 700 466 679 522 q 721 346 721 410 q 693 200 721 266 q 615 87 665 134 q 496 15 565 40 q 347 -11 428 -11 q 258 -1 300 -11 q 178 25 215 8 q 109 62 141 41 q 53 107 78 83 l 106 180 q 150 203 122 203 q 185 192 167 203 q 226 168 203 181 q 281 144 250 155 q 357 133 313 133 q 440 148 404 133 q 500 191 476 163 q 536 256 524 218 q 549 338 549 294 q 501 466 549 420 q 361 513 453 513 q 215 486 288 513 l 108 517 l 191 1004 l 687 1004 l 687 931 z "},"6":{"ha":806,"x_min":60,"x_max":762,"o":"m 465 627 q 576 608 522 627 q 671 552 630 590 q 737 458 712 514 q 762 326 762 401 q 736 195 762 256 q 664 88 710 133 q 552 15 617 42 q 407 -11 486 -11 q 263 15 326 -11 q 153 86 199 40 q 84 198 108 133 q 60 342 60 263 q 89 487 60 413 q 178 642 118 562 l 418 964 q 455 992 431 981 q 510 1004 478 1004 l 663 1004 l 365 640 q 346 617 355 628 q 329 596 338 607 q 392 619 358 610 q 465 627 426 627 m 225 315 q 236 239 225 274 q 270 181 248 205 q 326 143 293 156 q 403 129 360 129 q 479 143 444 129 q 538 182 513 157 q 576 241 563 207 q 590 314 590 274 q 577 391 590 357 q 540 450 564 426 q 481 486 515 474 q 406 499 447 499 q 332 485 365 499 q 275 446 299 471 q 238 388 251 422 q 225 315 225 354 z "},"7":{"ha":806,"x_min":67,"x_max":761,"o":"m 761 1004 l 761 930 q 754 876 761 897 q 740 842 747 856 l 360 58 q 326 17 348 34 q 268 0 305 0 l 144 0 l 533 767 q 587 849 557 815 l 106 849 q 78 860 90 849 q 67 888 67 872 l 67 1004 l 761 1004 z "},"8":{"ha":806,"x_min":54,"x_max":751,"o":"m 403 -11 q 261 10 325 -11 q 151 69 197 31 q 80 161 105 107 q 54 282 54 215 q 98 432 54 371 q 234 524 142 494 q 124 610 160 554 q 88 746 88 667 q 111 852 88 803 q 176 938 134 901 q 275 995 217 974 q 403 1015 333 1015 q 530 995 472 1015 q 630 938 588 974 q 695 852 672 901 q 718 746 718 803 q 681 610 718 667 q 572 524 644 554 q 708 432 664 494 q 751 282 751 371 q 726 161 751 215 q 655 69 701 107 q 545 10 609 31 q 403 -11 481 -11 m 403 123 q 477 135 445 123 q 531 169 509 147 q 564 220 553 190 q 575 285 575 250 q 529 410 575 367 q 403 452 483 452 q 276 410 322 452 q 231 285 231 367 q 242 220 231 250 q 275 169 253 190 q 328 135 297 147 q 403 123 360 123 m 403 587 q 473 600 444 587 q 519 635 501 613 q 543 685 536 657 q 551 743 551 713 q 542 797 551 772 q 515 843 533 823 q 469 874 497 863 q 403 886 441 886 q 337 874 365 886 q 291 843 309 863 q 264 797 272 823 q 255 743 255 772 q 262 685 255 713 q 287 635 269 657 q 333 600 304 613 q 403 587 361 587 z "},"9":{"ha":806,"x_min":90,"x_max":767,"o":"m 368 401 q 266 419 316 401 q 177 473 216 437 q 114 564 138 510 q 90 690 90 617 q 115 816 90 757 q 185 919 140 875 q 294 990 231 964 q 433 1015 357 1015 q 572 991 510 1015 q 677 923 633 967 q 743 818 720 879 q 767 684 767 757 q 759 596 767 638 q 736 516 751 554 q 700 441 721 477 q 653 367 679 404 l 424 40 q 389 11 412 23 q 335 0 365 0 l 178 0 l 490 390 q 512 418 501 404 q 532 446 522 432 q 456 412 497 424 q 368 401 414 401 m 602 701 q 590 775 602 742 q 554 829 577 807 q 500 863 531 851 q 431 875 468 875 q 360 862 392 875 q 307 826 329 849 q 274 772 285 803 q 262 703 262 740 q 305 575 262 619 q 428 531 349 531 q 502 544 470 531 q 557 580 535 557 q 591 634 579 603 q 602 701 602 665 z "},"˛":{"ha":760,"x_min":29,"x_max":731,"o":"m 166 797 q 256 850 206 828 q 375 872 306 872 q 463 859 424 872 q 528 822 501 846 q 570 764 556 798 q 584 690 584 731 q 574 624 584 651 q 550 576 565 597 q 518 541 535 556 q 485 514 501 526 q 457 488 469 501 q 441 460 444 476 l 426 394 l 308 394 l 297 473 q 300 517 292 499 q 323 550 308 535 q 355 578 337 565 q 388 605 372 591 q 414 637 403 619 q 425 679 425 655 q 408 719 425 703 q 360 734 392 734 q 318 729 335 734 q 288 719 301 724 q 266 708 276 713 q 247 703 257 703 q 212 724 223 703 l 166 797 m 267 217 q 275 254 267 237 q 294 284 282 272 q 324 305 307 297 q 362 312 342 312 q 398 305 381 312 q 428 284 415 297 q 448 254 441 272 q 456 217 456 237 q 448 180 456 197 q 428 151 441 163 q 398 131 415 138 q 362 124 381 124 q 324 131 342 124 q 294 151 307 138 q 275 180 282 163 q 267 217 267 197 m 29 1004 l 731 1004 l 731 0 l 29 0 l 29 1004 m 74 48 l 681 48 l 681 957 l 74 957 l 74 48 z "},"\r":{"ha":0,"x_min":0,"x_max":0,"o":""},"\u0000":{"ha":0,"x_min":0,"x_max":0,"o":""}," ":{"ha":268,"x_min":0,"x_max":0,"o":""},"!":{"ha":501,"x_min":145,"x_max":356,"o":"m 333 1004 l 333 607 q 327 483 333 544 q 310 354 321 422 l 194 354 q 178 483 184 422 q 172 607 172 544 l 172 1004 l 333 1004 m 145 94 q 153 135 145 116 q 175 169 161 155 q 209 191 190 183 q 251 199 228 199 q 292 191 272 199 q 325 169 311 183 q 347 135 339 155 q 356 94 356 116 q 347 53 356 72 q 325 20 339 34 q 292 -2 311 6 q 251 -10 272 -10 q 209 -2 228 -10 q 175 20 190 6 q 153 53 161 34 q 145 94 145 72 z "},"\"":{"ha":586,"x_min":91,"x_max":496,"o":"m 240 1004 l 240 804 l 224 696 q 207 649 219 665 q 165 633 194 633 q 125 649 140 633 q 106 696 110 665 l 91 804 l 91 1004 l 240 1004 m 496 1004 l 496 804 l 480 696 q 462 649 475 665 q 420 633 449 633 q 381 649 395 633 q 362 696 366 665 l 347 804 l 347 1004 l 496 1004 z "},"#":{"ha":806,"x_min":27,"x_max":788,"o":"m 577 283 l 524 0 l 445 0 q 409 17 424 0 q 394 58 394 33 q 394 64 394 61 q 395 71 394 67 l 436 283 l 294 283 l 253 63 q 225 15 247 29 q 176 0 203 0 l 100 0 l 153 283 l 73 283 q 39 294 51 283 q 27 330 27 305 q 29 352 27 340 l 38 407 l 170 407 l 206 599 l 58 599 l 71 670 q 92 709 76 697 q 147 722 109 722 l 224 722 l 267 946 q 292 989 272 974 q 340 1004 313 1004 l 417 1004 l 365 722 l 506 722 l 560 1004 l 636 1004 q 676 990 660 1004 q 691 955 691 976 q 690 944 691 948 l 647 722 l 788 722 l 775 651 q 753 611 770 624 q 699 599 736 599 l 630 599 l 594 407 l 693 407 q 727 396 715 407 q 738 360 738 385 q 736 338 738 350 l 728 283 l 577 283 m 311 407 l 453 407 l 489 599 l 347 599 l 311 407 z "},"$":{"ha":806,"x_min":48,"x_max":751,"o":"m 322 -6 q 169 38 240 5 q 48 121 98 72 l 101 199 q 119 216 108 210 q 143 223 131 223 q 176 212 158 223 q 215 187 193 201 q 266 158 238 172 q 333 136 294 143 l 360 447 q 262 480 310 461 q 175 530 214 499 q 113 608 137 560 q 90 726 90 655 q 111 829 90 778 q 172 919 132 879 q 272 984 213 958 q 407 1013 331 1010 l 415 1101 q 428 1131 416 1117 q 461 1144 441 1144 l 524 1144 l 513 1007 q 640 965 586 995 q 733 898 693 935 l 691 835 q 672 814 681 821 q 648 807 662 807 q 623 814 638 807 q 591 830 609 820 q 550 849 572 839 q 501 865 528 858 l 476 577 q 575 543 526 562 q 664 496 624 525 q 727 423 703 467 q 751 315 751 380 q 730 193 751 250 q 667 93 708 137 q 565 23 626 50 q 427 -10 505 -4 l 419 -112 q 405 -141 417 -128 q 372 -155 392 -155 l 309 -155 l 322 -6 m 589 288 q 580 334 589 315 q 553 369 570 354 q 513 396 536 385 q 463 416 490 407 l 440 134 q 551 184 513 144 q 589 288 589 224 m 251 742 q 260 696 251 716 q 286 660 269 676 q 324 632 302 644 q 373 610 347 620 l 394 867 q 329 851 356 863 q 285 823 302 840 q 259 786 267 806 q 251 742 251 765 z "},"%":{"ha":1115,"x_min":42,"x_max":1073,"o":"m 506 761 q 487 658 506 704 q 436 580 468 613 q 362 531 404 548 q 274 513 319 513 q 181 531 224 513 q 108 580 139 548 q 60 658 77 613 q 42 761 42 704 q 60 867 42 819 q 108 947 77 914 q 181 997 139 979 q 274 1015 224 1015 q 366 997 324 1015 q 440 947 409 979 q 489 867 472 914 q 506 761 506 819 m 374 761 q 366 828 374 801 q 345 872 358 856 q 313 896 331 889 q 274 903 294 903 q 235 896 253 903 q 203 872 217 889 q 183 828 190 856 q 176 761 176 801 q 183 696 176 722 q 203 654 190 670 q 235 631 217 638 q 274 624 253 624 q 313 631 294 624 q 345 654 331 638 q 366 696 358 670 q 374 761 374 722 m 840 977 q 861 996 849 988 q 896 1004 874 1004 l 1020 1004 l 274 26 q 253 7 266 15 q 222 0 240 0 l 94 0 l 840 977 m 1073 236 q 1054 133 1073 179 q 1003 55 1035 88 q 928 5 971 23 q 840 -12 886 -12 q 748 5 790 -12 q 675 55 706 23 q 626 133 644 88 q 609 236 609 179 q 626 342 609 294 q 675 422 644 389 q 748 472 706 454 q 840 490 790 490 q 933 472 890 490 q 1007 422 976 454 q 1056 342 1038 389 q 1073 236 1073 294 m 941 236 q 933 303 941 276 q 911 347 925 331 q 880 371 898 364 q 840 378 861 378 q 801 371 819 378 q 770 347 783 364 q 750 303 758 331 q 742 236 742 276 q 750 171 742 197 q 770 128 758 144 q 801 106 783 113 q 840 99 819 99 q 880 106 861 99 q 911 128 898 113 q 933 171 925 144 q 941 236 941 197 z "},"&":{"ha":992,"x_min":44,"x_max":994,"o":"m 460 1015 q 570 997 522 1015 q 652 947 618 978 q 707 875 687 915 q 730 792 726 835 l 621 769 q 616 768 619 768 q 612 768 614 768 q 591 775 600 768 q 576 795 581 781 q 560 830 569 813 q 536 858 550 846 q 503 877 522 870 q 460 885 485 885 q 408 875 431 885 q 369 848 385 865 q 345 808 353 831 q 337 760 337 785 q 341 720 337 740 q 356 681 346 701 q 381 641 365 662 q 419 597 397 621 l 686 320 q 723 413 709 364 q 741 511 737 461 q 751 537 742 527 q 776 547 760 547 l 884 547 q 858 372 883 455 q 784 218 832 288 l 994 0 l 826 0 q 803 1 813 0 q 784 7 793 3 q 767 17 775 10 q 749 33 758 23 l 680 104 q 532 19 613 50 q 355 -11 450 -11 q 241 9 297 -11 q 142 66 185 28 q 71 157 98 103 q 44 276 44 210 q 60 365 44 323 q 102 443 75 407 q 166 508 129 479 q 248 558 203 538 q 194 660 211 610 q 177 759 177 710 q 196 858 177 811 q 252 940 215 905 q 341 995 288 974 q 460 1015 394 1015 m 219 290 q 232 222 219 252 q 268 170 245 191 q 321 137 291 149 q 385 126 351 126 q 497 145 447 126 q 589 198 547 164 l 325 469 q 244 388 269 433 q 219 290 219 342 z "},"'":{"ha":331,"x_min":91,"x_max":240,"o":"m 240 1004 l 240 804 l 224 696 q 207 649 219 665 q 165 633 194 633 q 125 649 140 633 q 106 696 110 665 l 91 804 l 91 1004 l 240 1004 z "},"(":{"ha":417,"x_min":74,"x_max":365,"o":"m 222 435 q 257 154 222 292 q 356 -106 292 16 q 363 -122 361 -115 q 365 -136 365 -130 q 358 -159 365 -150 q 341 -173 351 -167 l 265 -219 q 177 -60 213 -140 q 118 101 141 19 q 84 265 95 182 q 74 435 74 349 q 84 606 74 522 q 118 771 95 690 q 177 932 141 852 q 265 1090 213 1011 l 341 1044 q 358 1030 351 1039 q 365 1008 365 1022 q 356 977 365 995 q 257 717 292 856 q 222 435 222 578 z "},")":{"ha":417,"x_min":52,"x_max":343,"o":"m 194 435 q 160 717 194 578 q 61 977 125 856 q 52 1008 52 995 q 59 1030 52 1022 q 76 1044 66 1039 l 152 1090 q 240 932 203 1011 q 299 771 276 852 q 332 606 322 690 q 343 435 343 522 q 332 265 343 349 q 299 101 322 182 q 240 -60 276 19 q 152 -219 203 -140 l 76 -173 q 59 -159 66 -167 q 52 -136 52 -150 q 54 -122 52 -130 q 60 -106 56 -115 q 160 154 125 16 q 194 435 194 292 z "},"*":{"ha":556,"x_min":53,"x_max":501,"o":"m 236 581 l 236 708 q 238 735 236 722 q 244 760 240 749 q 226 743 236 751 q 203 728 215 735 l 94 664 l 53 733 l 163 797 q 188 810 176 805 q 213 817 200 815 q 188 824 200 818 q 163 837 176 829 l 53 901 l 93 971 l 203 906 q 226 890 215 898 q 244 872 237 882 q 238 897 240 884 q 236 924 236 910 l 236 1053 l 318 1053 l 318 926 q 316 898 318 911 q 310 872 315 884 q 328 890 317 882 q 351 906 338 898 l 460 969 l 501 900 l 391 837 q 366 824 378 829 q 341 817 354 819 q 391 797 365 813 l 501 733 l 461 663 l 351 728 q 328 743 338 735 q 309 760 317 751 q 318 709 318 738 l 318 581 l 236 581 z "},"+":{"ha":806,"x_min":63,"x_max":741,"o":"m 471 815 l 471 530 l 741 530 l 741 403 l 471 403 l 471 117 l 332 117 l 332 403 l 63 403 l 63 530 l 332 530 l 332 815 l 471 815 z "},",":{"ha":313,"x_min":56,"x_max":260,"o":"m 56 106 q 63 142 56 125 q 83 172 70 159 q 115 192 97 185 q 156 199 134 199 q 202 190 183 199 q 235 164 222 181 q 254 127 248 148 q 260 82 260 106 q 250 12 260 49 q 221 -62 240 -25 q 173 -133 201 -99 q 108 -197 144 -168 l 78 -170 q 65 -144 65 -160 q 69 -132 65 -139 q 78 -119 73 -125 q 97 -99 86 -111 q 119 -71 108 -87 q 140 -37 131 -56 q 153 2 149 -19 q 114 10 132 2 q 83 32 96 18 q 63 65 70 46 q 56 106 56 83 z "},"-":{"ha":499,"x_min":69,"x_max":429,"o":"m 69 491 l 429 491 l 429 348 l 69 348 l 69 491 z "},".":{"ha":313,"x_min":51,"x_max":261,"o":"m 51 94 q 59 135 51 116 q 81 169 67 155 q 115 191 95 183 q 156 199 134 199 q 197 191 178 199 q 231 169 217 183 q 253 135 244 155 q 261 94 261 116 q 253 53 261 72 q 231 20 244 34 q 197 -2 217 6 q 156 -10 178 -10 q 115 -2 134 -10 q 81 20 95 6 q 59 53 67 34 q 51 94 51 72 z "},"/":{"ha":538,"x_min":-12,"x_max":553,"o":"m 151 -2 q 135 -30 145 -18 q 113 -50 126 -42 q 87 -62 101 -58 q 60 -66 73 -66 l -12 -66 l 393 972 q 427 1016 405 1001 q 481 1032 449 1032 l 553 1032 l 151 -2 z "},":":{"ha":368,"x_min":78,"x_max":289,"o":"m 78 94 q 86 135 78 116 q 109 169 94 155 q 142 191 123 183 q 184 199 162 199 q 225 191 206 199 q 258 169 244 183 q 281 135 272 155 q 289 94 289 116 q 281 53 289 72 q 258 20 272 34 q 225 -2 244 6 q 184 -10 206 -10 q 142 -2 162 -10 q 109 20 123 6 q 86 53 94 34 q 78 94 78 72 m 78 590 q 86 631 78 611 q 109 664 94 650 q 142 686 123 678 q 184 694 162 694 q 225 686 206 694 q 258 664 244 678 q 281 631 272 650 q 289 590 289 611 q 281 548 289 567 q 258 515 272 529 q 225 493 244 501 q 184 485 206 485 q 142 493 162 485 q 109 515 123 501 q 86 548 94 529 q 78 590 78 567 z "},";":{"ha":368,"x_min":78,"x_max":289,"o":"m 83 106 q 91 142 83 125 q 111 172 98 159 q 143 192 124 185 q 184 199 162 199 q 230 190 210 199 q 263 164 249 181 q 282 127 276 148 q 288 82 288 106 q 278 12 288 49 q 249 -62 268 -25 q 201 -133 229 -99 q 135 -197 172 -168 l 106 -170 q 93 -144 93 -160 q 97 -132 93 -139 q 106 -119 101 -125 q 125 -99 114 -111 q 147 -71 136 -87 q 168 -37 158 -56 q 181 2 177 -19 q 142 10 160 2 q 111 32 124 18 q 91 65 98 46 q 83 106 83 83 m 78 590 q 86 631 78 611 q 109 664 94 650 q 142 686 123 678 q 184 694 162 694 q 225 686 206 694 q 258 664 244 678 q 281 631 272 650 q 289 590 289 611 q 281 548 289 567 q 258 515 272 529 q 225 493 244 501 q 184 485 206 485 q 142 493 162 485 q 109 515 123 501 q 86 548 94 529 q 78 590 78 567 z "},"<":{"ha":806,"x_min":97,"x_max":647,"o":"m 97 503 l 647 790 l 647 667 q 640 642 647 653 q 617 622 633 631 l 365 493 q 331 479 349 485 q 293 468 313 473 q 331 457 313 463 q 365 443 349 451 l 617 313 q 640 293 633 305 q 647 268 647 282 l 647 146 l 97 433 l 97 503 z "},"=":{"ha":806,"x_min":94,"x_max":710,"o":"m 94 408 l 710 408 l 710 281 l 94 281 l 94 408 m 94 653 l 710 653 l 710 526 l 94 526 l 94 653 z "},">":{"ha":806,"x_min":159,"x_max":709,"o":"m 159 146 l 159 268 q 166 293 159 282 q 189 313 173 305 l 441 443 q 513 468 472 458 q 475 479 492 473 q 441 493 457 485 l 189 622 q 166 642 173 631 q 159 667 159 653 l 159 790 l 709 503 l 709 433 l 159 146 z "},"?":{"ha":584,"x_min":26,"x_max":561,"o":"m 26 913 q 77 953 49 934 q 138 985 106 972 q 209 1007 171 999 q 292 1015 247 1015 q 402 999 352 1015 q 487 951 451 982 q 542 876 522 920 q 561 778 561 833 q 546 687 561 726 q 507 620 531 649 q 457 571 484 592 q 406 532 430 550 q 364 495 381 513 q 342 456 346 478 l 326 354 l 209 354 l 197 467 q 197 473 197 471 q 197 479 197 476 q 212 532 197 510 q 250 575 227 555 q 299 613 273 594 q 349 654 326 632 q 387 703 372 676 q 402 769 402 731 q 393 814 402 794 q 367 848 383 833 q 327 869 350 862 q 276 877 303 877 q 209 868 237 877 q 163 849 182 860 q 131 830 144 838 q 107 821 117 821 q 71 842 82 821 l 26 913 m 157 94 q 165 135 157 116 q 187 169 173 155 q 221 191 201 183 q 263 199 240 199 q 303 191 284 199 q 337 169 323 183 q 359 135 351 155 q 367 94 367 116 q 359 53 367 72 q 337 20 351 34 q 303 -2 323 6 q 263 -10 284 -10 q 221 -2 240 -10 q 187 20 201 6 q 165 53 173 34 q 157 94 157 72 z "},"@":{"ha":1142,"x_min":47,"x_max":1101,"o":"m 810 128 q 725 150 763 128 q 674 222 688 172 q 587 150 633 172 q 488 128 541 128 q 412 144 444 128 q 358 186 380 159 q 325 249 336 213 q 315 328 315 285 q 325 409 315 368 q 355 487 335 449 q 405 558 375 525 q 476 616 435 591 q 568 655 517 640 q 681 669 619 669 q 772 660 734 669 q 846 637 810 652 l 779 379 q 768 305 768 335 q 773 270 768 284 q 787 248 778 256 q 808 236 796 240 q 835 233 821 233 q 891 252 865 233 q 936 303 917 270 q 967 383 956 337 q 978 483 978 428 q 950 642 978 573 q 872 757 922 710 q 751 826 822 803 q 598 849 681 849 q 429 815 507 849 q 293 721 351 781 q 204 580 236 661 q 172 405 172 499 q 207 205 172 291 q 304 60 242 118 q 450 -27 366 2 q 631 -56 533 -56 q 731 -50 684 -56 q 816 -34 777 -44 q 887 -11 855 -24 q 944 16 919 1 q 967 24 958 24 q 996 1 988 24 l 1019 -60 q 851 -137 947 -108 q 631 -167 754 -167 q 398 -128 505 -167 q 213 -14 291 -88 q 91 166 135 60 q 47 405 47 272 q 66 549 47 479 q 120 681 85 619 q 206 794 156 742 q 317 882 256 845 q 449 939 378 919 q 598 960 520 960 q 787 927 697 960 q 948 832 878 894 q 1059 682 1017 771 q 1101 483 1101 594 q 1079 343 1101 408 q 1018 231 1057 278 q 925 155 978 183 q 810 128 872 128 m 522 239 q 559 244 540 239 q 594 264 577 250 q 624 302 610 278 q 647 361 638 326 l 698 557 q 652 561 676 561 q 572 542 609 561 q 507 492 534 524 q 463 418 479 460 q 447 333 447 377 q 466 264 447 288 q 522 239 485 239 z "},"A":{"ha":986,"x_min":4,"x_max":984,"o":"m 984 0 l 840 0 q 800 12 815 0 q 777 42 784 24 l 702 247 l 286 247 l 211 42 q 189 13 206 26 q 149 0 173 0 l 4 0 l 399 1004 l 590 1004 l 984 0 m 334 379 l 654 379 l 532 713 q 514 766 524 735 q 494 831 503 796 q 475 765 484 796 q 456 712 465 735 l 334 379 z "},"B":{"ha":905,"x_min":101,"x_max":846,"o":"m 101 0 l 101 1004 l 448 1004 q 616 985 547 1004 q 731 932 686 967 q 797 848 776 897 q 817 737 817 799 q 807 669 817 701 q 775 609 797 637 q 719 558 753 581 q 639 519 685 535 q 846 295 846 472 q 822 177 846 231 q 751 84 797 123 q 636 22 704 44 q 481 0 568 0 l 101 0 m 288 440 l 288 146 l 478 146 q 565 158 530 146 q 621 192 600 171 q 652 240 642 213 q 661 299 661 268 q 651 358 661 332 q 618 402 640 384 q 561 431 596 421 q 477 440 526 440 l 288 440 m 288 569 l 438 569 q 582 604 533 569 q 631 715 631 639 q 587 826 631 793 q 448 860 542 860 l 288 860 l 288 569 z "},"C":{"ha":931,"x_min":43,"x_max":897,"o":"m 792 237 q 818 225 807 237 l 892 145 q 741 29 831 69 q 527 -11 652 -11 q 326 27 415 -11 q 174 133 237 65 q 77 296 110 201 q 43 502 43 390 q 81 709 43 615 q 186 872 118 803 q 349 977 254 940 q 558 1015 444 1015 q 754 980 670 1015 q 897 885 838 944 l 835 798 q 820 783 829 790 q 797 777 812 777 q 764 790 781 777 q 722 817 747 802 q 657 844 696 831 q 557 856 617 856 q 427 832 486 856 q 325 761 367 807 q 258 650 282 715 q 234 502 234 584 q 258 351 234 417 q 323 240 282 285 q 419 171 364 195 q 539 147 475 147 q 608 151 577 147 q 665 165 639 156 q 714 188 691 174 q 760 223 738 202 q 775 233 767 229 q 792 237 783 237 z "},"D":{"ha":1038,"x_min":101,"x_max":993,"o":"m 993 502 q 956 299 993 392 q 853 140 919 207 q 692 37 786 74 q 485 0 599 0 l 101 0 l 101 1004 l 485 1004 q 692 967 599 1004 q 853 864 786 930 q 956 705 919 797 q 993 502 993 613 m 802 502 q 780 650 802 585 q 717 761 758 716 q 617 831 676 807 q 485 856 558 856 l 290 856 l 290 149 l 485 149 q 617 173 558 149 q 717 243 676 197 q 780 354 758 288 q 802 502 802 419 z "},"E":{"ha":795,"x_min":101,"x_max":735,"o":"m 735 1004 l 735 856 l 290 856 l 290 577 l 640 577 l 640 433 l 290 433 l 290 149 l 735 149 l 735 0 l 101 0 l 101 1004 l 735 1004 z "},"F":{"ha":780,"x_min":101,"x_max":735,"o":"m 735 1004 l 735 856 l 290 856 l 290 558 l 665 558 l 665 409 l 290 409 l 290 0 l 101 0 l 101 1004 l 735 1004 z "},"G":{"ha":1004,"x_min":43,"x_max":931,"o":"m 563 138 q 673 149 626 138 q 762 181 719 160 l 762 363 l 636 363 q 608 373 618 363 q 597 398 597 383 l 597 503 l 931 503 l 931 97 q 852 49 893 69 q 764 15 810 28 q 663 -5 717 2 q 548 -11 610 -11 q 346 27 438 -11 q 186 133 253 65 q 81 296 119 201 q 43 502 43 390 q 80 710 43 615 q 184 872 117 804 q 349 978 252 940 q 565 1015 445 1015 q 778 979 688 1015 q 931 884 868 942 l 876 799 q 834 774 860 774 q 800 785 817 774 q 755 811 778 798 q 703 834 731 824 q 640 850 675 844 q 559 856 605 856 q 425 831 485 856 q 322 760 365 806 q 257 648 280 713 q 234 502 234 583 q 258 348 234 415 q 326 233 283 280 q 431 162 370 187 q 563 138 491 138 z "},"H":{"ha":1050,"x_min":101,"x_max":949,"o":"m 949 0 l 760 0 l 760 439 l 290 439 l 290 0 l 101 0 l 101 1004 l 290 1004 l 290 572 l 760 572 l 760 1004 l 949 1004 l 949 0 z "},"I":{"ha":436,"x_min":124,"x_max":312,"o":"m 312 0 l 124 0 l 124 1004 l 312 1004 l 312 0 z "},"J":{"ha":607,"x_min":26,"x_max":506,"o":"m 506 357 q 485 204 506 272 q 423 88 464 136 q 319 15 381 40 q 176 -11 258 -11 q 102 -7 138 -11 q 26 8 66 -2 l 36 119 q 48 143 38 134 q 77 153 58 153 q 108 148 89 153 q 156 143 127 143 q 226 155 196 143 q 277 191 257 166 q 308 256 298 216 q 319 353 319 296 l 319 1004 l 506 1004 l 506 357 z "},"K":{"ha":969,"x_min":108,"x_max":960,"o":"m 294 583 l 338 583 q 382 591 365 583 q 412 614 399 598 l 689 965 q 725 995 706 987 q 774 1004 744 1004 l 935 1004 l 597 587 q 566 554 581 567 q 535 533 551 541 q 576 509 558 524 q 612 470 594 494 l 960 0 l 795 0 q 745 9 762 0 q 718 37 729 19 l 434 408 q 403 434 420 426 q 353 442 385 442 l 294 442 l 294 0 l 108 0 l 108 1005 l 294 1005 l 294 583 z "},"L":{"ha":718,"x_min":101,"x_max":690,"o":"m 288 154 l 690 154 l 690 0 l 101 0 l 101 1004 l 288 1004 l 288 154 z "},"M":{"ha":1292,"x_min":101,"x_max":1190,"o":"m 606 417 q 627 370 617 394 q 647 322 638 347 q 667 372 657 347 q 690 418 678 396 l 987 974 q 998 991 992 985 q 1011 1000 1004 997 q 1028 1003 1019 1003 q 1049 1004 1037 1004 l 1190 1004 l 1190 0 l 1026 0 l 1026 649 q 1027 688 1026 667 q 1030 732 1028 710 l 726 163 q 699 132 716 143 q 660 122 683 122 l 635 122 q 596 132 613 122 q 569 163 579 143 l 261 734 q 265 689 264 711 q 266 649 266 667 l 266 0 l 101 0 l 101 1004 l 242 1004 q 264 1003 255 1004 q 280 1000 273 1003 q 294 991 288 997 q 306 974 300 985 l 606 417 l 606 417 z "},"N":{"ha":1050,"x_min":101,"x_max":949,"o":"m 199 1004 q 220 1003 212 1004 q 235 999 228 1002 q 248 990 242 996 q 262 974 254 984 l 789 303 q 785 350 786 327 q 784 394 784 374 l 784 1004 l 949 1004 l 949 0 l 852 0 q 815 7 830 0 q 787 32 801 14 l 262 701 q 265 657 264 678 q 266 617 266 635 l 266 0 l 101 0 l 101 1004 l 199 1004 l 199 1004 z "},"O":{"ha":1110,"x_min":47,"x_max":1065,"o":"m 1065 502 q 1028 298 1065 392 q 924 135 991 203 q 764 27 858 66 q 556 -11 670 -11 q 348 27 442 -11 q 187 135 254 66 q 83 298 120 203 q 47 502 47 392 q 83 707 47 613 q 187 869 120 801 q 348 977 254 938 q 556 1015 442 1015 q 764 976 670 1015 q 924 869 858 938 q 1028 707 991 801 q 1065 502 1065 613 m 873 502 q 851 650 873 585 q 788 762 829 716 q 689 832 747 808 q 556 856 630 856 q 424 832 483 856 q 323 762 365 808 q 260 650 282 716 q 238 502 238 585 q 260 354 238 419 q 323 243 282 288 q 424 173 365 197 q 556 149 483 149 q 689 173 630 149 q 788 243 747 197 q 851 354 829 288 q 873 502 873 419 z "},"P":{"ha":868,"x_min":108,"x_max":824,"o":"m 294 353 l 294 0 l 108 0 l 108 1004 l 435 1004 q 609 981 535 1004 q 731 915 683 957 q 801 813 778 872 q 824 684 824 754 q 800 550 824 611 q 727 446 776 490 q 606 378 678 402 q 435 353 533 353 l 294 353 m 294 499 l 435 499 q 524 512 486 499 q 588 549 563 525 q 625 607 613 573 q 638 684 638 642 q 625 757 638 724 q 588 813 613 790 q 524 848 563 835 q 435 860 486 860 l 294 860 l 294 499 z "},"Q":{"ha":1110,"x_min":47,"x_max":1117,"o":"m 1065 502 q 1051 373 1065 435 q 1011 258 1037 312 q 947 160 985 205 q 862 81 910 115 l 1117 -197 l 963 -197 q 902 -187 929 -197 q 853 -154 876 -178 l 706 8 q 634 -6 671 -1 q 556 -11 597 -11 q 348 27 442 -11 q 187 135 254 66 q 83 298 120 203 q 47 502 47 392 q 83 707 47 613 q 187 869 120 801 q 348 977 254 938 q 556 1015 442 1015 q 764 976 670 1015 q 924 869 858 938 q 1028 707 991 801 q 1065 502 1065 613 m 873 502 q 851 650 873 585 q 788 762 829 716 q 689 832 747 808 q 556 856 630 856 q 424 832 483 856 q 323 762 365 808 q 260 650 282 716 q 238 502 238 585 q 260 354 238 419 q 323 243 282 288 q 424 173 365 197 q 556 149 483 149 q 689 173 630 149 q 788 243 747 197 q 851 354 829 288 q 873 502 873 419 z "},"R":{"ha":910,"x_min":108,"x_max":892,"o":"m 294 392 l 294 0 l 108 0 l 108 1004 l 414 1004 q 590 983 517 1004 q 710 924 663 962 q 779 832 757 885 q 801 715 801 779 q 786 619 801 665 q 743 538 771 574 q 673 473 715 501 q 579 428 632 445 q 640 371 615 408 l 892 0 l 724 0 q 682 10 699 0 q 653 38 665 19 l 442 359 q 416 385 431 377 q 374 392 402 392 l 294 392 m 294 526 l 411 526 q 503 540 464 526 q 568 576 542 553 q 606 631 593 599 q 618 701 618 663 q 568 819 618 778 q 414 860 517 860 l 294 860 l 294 526 z "},"S":{"ha":745,"x_min":25,"x_max":703,"o":"m 640 822 q 622 800 632 806 q 598 794 612 794 q 567 805 584 794 q 526 828 549 815 q 470 852 502 842 q 396 863 439 863 q 328 854 357 863 q 280 828 299 844 q 250 788 260 811 q 240 737 240 765 q 260 678 240 701 q 313 638 280 654 q 387 608 345 621 q 472 580 428 594 q 557 545 515 565 q 631 495 599 525 q 684 421 664 465 q 703 315 703 377 q 680 187 703 247 q 612 84 657 128 q 503 14 567 40 q 355 -11 438 -11 q 260 -2 307 -11 q 171 25 214 8 q 91 67 128 42 q 25 121 54 91 l 79 210 q 98 227 87 220 q 122 233 108 233 q 159 219 139 233 q 207 188 179 205 q 271 156 234 170 q 360 142 308 142 q 484 180 440 142 q 528 288 528 217 q 508 353 528 328 q 456 395 488 378 q 381 424 423 412 q 297 449 340 435 q 212 483 253 463 q 138 533 170 502 q 85 611 105 565 q 65 727 65 658 q 87 834 65 782 q 151 926 109 886 q 254 991 193 967 q 394 1015 315 1015 q 558 988 483 1015 q 685 910 633 960 l 640 822 z "},"T":{"ha":826,"x_min":17,"x_max":809,"o":"m 809 1004 l 809 851 l 507 851 l 507 0 l 320 0 l 320 851 l 17 851 l 17 1004 l 809 1004 z "},"U":{"ha":1011,"x_min":90,"x_max":922,"o":"m 506 151 q 602 169 560 151 q 675 219 645 187 q 720 299 704 252 q 735 403 735 345 l 735 1004 l 922 1004 l 922 403 q 893 237 922 313 q 810 106 865 161 q 679 20 756 51 q 506 -11 602 -11 q 332 20 409 -11 q 201 106 255 51 q 118 237 147 161 q 90 403 90 313 l 90 1004 l 276 1004 l 276 403 q 292 299 276 346 q 337 220 308 253 q 409 169 366 187 q 506 151 451 151 z "},"V":{"ha":986,"x_min":3,"x_max":983,"o":"m 3 1004 l 153 1004 q 193 992 178 1004 q 216 962 208 981 l 452 349 q 475 284 464 319 q 495 208 485 248 q 535 349 511 288 l 770 962 q 792 991 776 978 q 832 1004 808 1004 l 983 1004 l 577 0 l 408 0 l 3 1004 z "},"W":{"ha":1453,"x_min":8,"x_max":1445,"o":"m 8 1004 l 165 1004 q 206 993 190 1004 q 228 962 222 981 l 399 361 q 410 313 405 339 q 420 258 415 287 q 432 313 426 287 q 447 361 439 339 l 644 962 q 666 991 649 978 q 706 1004 682 1004 l 760 1004 q 801 993 785 1004 q 823 962 817 981 l 1019 361 q 1045 263 1034 317 q 1055 315 1050 290 q 1066 361 1060 340 l 1237 962 q 1258 992 1242 979 q 1299 1004 1275 1004 l 1445 1004 l 1133 0 l 965 0 l 745 686 q 736 715 741 699 q 728 747 732 730 q 719 715 724 730 q 710 686 715 699 l 489 0 l 320 0 l 8 1004 z "},"X":{"ha":943,"x_min":8,"x_max":935,"o":"m 342 517 l 22 1004 l 208 1004 q 236 999 228 1004 q 252 982 245 994 l 481 613 q 488 631 484 622 q 498 649 492 640 l 707 978 q 747 1004 722 1004 l 926 1004 l 602 524 l 935 0 l 748 0 q 718 10 729 0 q 699 32 706 19 l 466 417 q 460 401 463 408 q 453 388 456 394 l 230 32 q 211 10 222 20 q 183 0 200 0 l 8 0 l 342 517 z "},"Y":{"ha":909,"x_min":-5,"x_max":913,"o":"m 548 390 l 548 0 l 361 0 l 361 390 l -5 1004 l 160 1004 q 198 992 184 1004 q 222 963 213 981 l 406 627 q 434 570 422 597 q 456 518 446 544 q 476 571 465 544 q 503 627 488 598 l 686 963 q 709 991 694 978 q 748 1004 724 1004 l 913 1004 l 548 390 z "},"Z":{"ha":857,"x_min":43,"x_max":819,"o":"m 819 1004 l 819 935 q 801 877 819 903 l 285 149 l 806 149 l 806 0 l 43 0 l 43 74 q 48 100 43 88 q 60 124 53 113 l 577 856 l 76 856 l 76 1004 l 819 1004 z "},"[":{"ha":417,"x_min":80,"x_max":365,"o":"m 80 -214 l 80 1074 l 365 1074 l 365 1007 q 352 976 365 989 q 319 963 339 963 l 223 963 l 223 -103 l 319 -103 q 352 -116 339 -103 q 365 -147 365 -128 l 365 -214 l 80 -214 z "},"\\":{"ha":542,"x_min":-19,"x_max":547,"o":"m -19 1032 l 54 1032 q 107 1016 85 1032 q 142 972 130 1001 l 547 -66 l 474 -66 q 421 -50 447 -66 q 383 -2 395 -34 l -19 1032 z "},"]":{"ha":417,"x_min":52,"x_max":337,"o":"m 52 -214 l 52 -147 q 65 -116 52 -128 q 98 -103 78 -103 l 194 -103 l 194 963 l 98 963 q 65 976 78 963 q 52 1007 52 989 l 52 1074 l 337 1074 l 337 -214 l 52 -214 z "},"^":{"ha":806,"x_min":85,"x_max":714,"o":"m 714 540 l 588 540 q 562 548 572 540 q 545 568 552 556 l 435 769 q 416 806 424 788 q 401 841 407 823 q 388 805 396 823 q 370 769 381 788 l 262 568 q 245 548 256 556 q 217 540 235 540 l 85 540 l 344 1004 l 455 1004 l 714 540 z "},"_":{"ha":547,"x_min":0,"x_max":547,"o":"m 547 -93 l 547 -204 l 0 -204 l 0 -93 l 547 -93 z "},"`":{"ha":443,"x_min":-1,"x_max":325,"o":"m 160 1015 q 202 1006 188 1015 q 226 978 215 997 l 325 810 l 227 810 q 195 815 208 810 q 171 834 183 820 l -1 1015 l 160 1015 z "},"a":{"ha":727,"x_min":56,"x_max":650,"o":"m 650 0 l 573 0 q 535 7 549 0 q 514 37 521 15 l 499 88 q 445 45 472 63 q 392 14 419 26 q 333 -5 364 1 q 263 -11 301 -11 q 180 1 218 -11 q 114 38 142 13 q 72 98 87 62 q 56 182 56 134 q 77 261 56 222 q 148 332 99 301 q 279 385 197 364 q 483 408 361 406 l 483 450 q 452 556 483 522 q 365 590 422 590 q 295 581 323 590 q 247 559 267 571 q 209 537 226 547 q 171 527 192 527 q 141 536 153 527 q 121 558 128 545 l 90 613 q 386 726 213 726 q 498 705 449 726 q 581 648 547 685 q 632 561 615 612 q 650 450 650 510 l 650 0 m 317 107 q 365 112 343 107 q 407 126 388 117 q 445 150 427 136 q 483 184 464 165 l 483 304 q 357 291 408 301 q 276 267 307 282 q 233 233 246 253 q 220 191 220 214 q 247 126 220 146 q 317 107 274 107 z "},"b":{"ha":792,"x_min":94,"x_max":749,"o":"m 94 0 l 94 1032 l 265 1032 l 265 625 q 361 697 308 670 q 486 724 415 724 q 593 700 544 724 q 676 630 641 676 q 730 517 711 584 q 749 362 749 449 q 728 214 749 282 q 666 96 706 146 q 570 18 626 46 q 443 -10 513 -10 q 383 -4 410 -10 q 334 15 356 3 q 293 43 312 26 q 256 81 274 60 l 249 33 q 234 8 244 15 q 207 0 224 0 l 94 0 m 427 590 q 336 568 374 590 q 265 504 298 545 l 265 185 q 329 134 294 149 q 403 120 363 120 q 474 135 442 120 q 527 179 505 149 q 560 255 549 209 q 572 362 572 300 q 562 468 572 424 q 533 538 552 511 q 488 578 515 565 q 427 590 461 590 z "},"c":{"ha":663,"x_min":44,"x_max":644,"o":"m 592 562 q 577 547 585 552 q 556 541 570 541 q 531 549 543 541 q 501 567 518 557 q 459 585 483 577 q 400 593 435 593 q 321 577 355 593 q 264 530 287 560 q 231 456 242 499 q 219 358 219 413 q 232 256 219 301 q 267 182 244 212 q 322 136 290 151 q 396 120 355 120 q 462 130 437 120 q 505 152 488 140 q 535 175 522 165 q 564 185 548 185 q 595 169 585 185 l 644 106 q 583 50 616 73 q 514 14 549 28 q 440 -5 478 1 q 364 -10 401 -10 q 240 14 298 -10 q 138 86 181 39 q 69 202 94 133 q 44 358 44 270 q 66 503 44 436 q 133 619 89 570 q 241 696 176 668 q 390 724 306 724 q 530 698 469 724 q 638 624 590 672 l 592 562 z "},"d":{"ha":792,"x_min":42,"x_max":698,"o":"m 593 0 q 549 31 560 0 l 535 100 q 489 55 513 75 q 436 20 465 35 q 376 -2 408 6 q 306 -10 344 -10 q 199 14 248 -10 q 116 84 151 38 q 61 199 81 131 q 42 354 42 267 q 64 501 42 433 q 126 619 85 569 q 222 698 166 669 q 349 726 278 726 q 451 707 408 726 q 526 656 493 688 l 526 1032 l 698 1032 l 698 0 l 593 0 m 365 126 q 456 148 418 126 q 526 211 493 170 l 526 531 q 463 581 497 566 q 389 595 428 595 q 318 581 350 595 q 265 536 287 566 q 231 461 243 507 q 219 354 219 416 q 230 248 219 292 q 258 177 240 205 q 304 138 277 150 q 365 126 331 126 z "},"e":{"ha":742,"x_min":44,"x_max":694,"o":"m 386 724 q 510 702 453 724 q 608 639 567 681 q 672 538 649 598 q 694 401 694 478 q 693 368 694 381 q 686 348 691 356 q 674 338 682 341 q 655 335 667 335 l 215 335 q 274 174 222 225 q 410 122 325 122 q 482 132 451 122 q 534 153 512 142 q 574 175 557 165 q 607 185 591 185 q 625 181 617 185 q 638 169 633 176 l 688 106 q 624 50 660 73 q 550 14 589 28 q 472 -5 512 1 q 394 -10 432 -10 q 256 14 320 -10 q 145 87 192 39 q 71 207 98 135 q 44 372 44 278 q 67 509 44 444 q 135 620 91 573 q 243 696 179 668 q 386 724 306 724 m 390 601 q 272 558 315 601 q 218 438 230 516 l 540 438 q 531 501 540 472 q 503 553 522 531 q 456 588 485 575 q 390 601 428 601 z "},"f":{"ha":487,"x_min":16,"x_max":480,"o":"m 122 0 l 122 583 l 60 593 q 28 607 40 597 q 16 636 16 617 l 16 706 l 122 706 l 122 759 q 141 869 122 820 q 193 951 159 917 q 277 1003 228 985 q 388 1022 326 1022 q 480 1008 438 1022 l 476 922 q 458 897 475 902 q 417 892 440 892 q 363 886 387 892 q 322 863 339 879 q 297 820 306 847 q 288 753 288 793 l 288 706 l 474 706 l 474 584 l 294 584 l 294 0 l 122 0 z "},"g":{"ha":719,"x_min":22,"x_max":703,"o":"m 338 725 q 424 716 384 725 q 498 688 465 706 l 703 688 l 703 624 q 694 599 703 608 q 666 587 686 590 l 602 575 q 613 537 609 557 q 617 494 617 517 q 595 399 617 442 q 537 326 574 356 q 449 280 500 297 q 338 264 398 264 q 260 272 298 264 q 226 226 226 251 q 246 195 226 205 q 298 181 266 185 q 372 175 331 176 q 456 171 413 174 q 540 159 499 167 q 613 131 581 150 q 665 80 645 113 q 685 -3 685 48 q 661 -94 685 -50 q 594 -174 638 -139 q 486 -230 550 -208 q 340 -251 422 -251 q 199 -235 259 -251 q 100 -193 140 -219 q 42 -133 61 -167 q 22 -62 22 -99 q 53 22 22 -12 q 138 76 83 56 q 95 115 111 90 q 79 178 79 139 q 85 211 79 194 q 102 244 90 228 q 131 276 113 261 q 172 303 148 291 q 86 381 117 332 q 56 494 56 429 q 77 590 56 547 q 136 663 98 633 q 225 709 174 693 q 338 725 277 725 m 526 -32 q 514 2 526 -11 q 480 23 501 15 q 430 33 458 30 q 368 39 401 37 q 302 42 336 40 q 235 48 267 44 q 189 10 206 32 q 171 -40 171 -12 q 180 -75 171 -59 q 210 -103 190 -92 q 263 -122 231 -115 q 343 -128 296 -128 q 426 -121 391 -128 q 483 -101 460 -114 q 516 -70 506 -88 q 526 -32 526 -53 m 338 374 q 394 382 370 374 q 433 406 417 391 q 457 443 449 422 q 465 490 465 465 q 433 574 465 543 q 338 605 401 605 q 243 574 275 605 q 212 490 212 543 q 220 444 212 465 q 243 407 228 422 q 283 382 259 391 q 338 374 307 374 z "},"h":{"ha":790,"x_min":92,"x_max":713,"o":"m 92 0 l 92 1032 l 263 1032 l 263 635 q 355 699 305 675 q 472 724 405 724 q 576 704 531 724 q 651 648 621 684 q 697 563 681 613 q 713 453 713 513 l 713 0 l 541 0 l 541 453 q 511 555 541 519 q 420 590 481 590 q 337 570 376 590 q 263 515 298 550 l 263 0 l 92 0 z "},"i":{"ha":376,"x_min":81,"x_max":300,"o":"m 274 713 l 274 0 l 103 0 l 103 713 l 274 713 m 300 920 q 291 878 300 898 q 267 844 282 859 q 232 821 252 830 q 189 813 212 813 q 147 821 167 813 q 113 844 127 830 q 89 878 98 859 q 81 920 81 898 q 89 963 81 943 q 113 998 98 983 q 147 1021 127 1013 q 189 1030 167 1030 q 232 1021 212 1030 q 267 998 252 1013 q 291 963 282 983 q 300 920 300 943 z "},"j":{"ha":374,"x_min":-40,"x_max":300,"o":"m 274 713 l 274 -24 q 262 -112 274 -71 q 223 -184 250 -153 q 153 -232 197 -215 q 47 -250 110 -250 q 2 -247 23 -250 q -40 -237 -19 -244 l -35 -144 q -24 -127 -33 -131 q 11 -123 -15 -123 q 55 -118 37 -123 q 83 -101 72 -112 q 98 -71 94 -90 q 103 -24 103 -52 l 103 713 l 274 713 m 300 920 q 291 878 300 898 q 267 844 282 859 q 232 821 252 830 q 189 813 212 813 q 147 821 167 813 q 113 844 127 830 q 89 878 98 859 q 81 920 81 898 q 89 963 81 943 q 113 998 98 983 q 147 1021 127 1013 q 189 1030 167 1030 q 232 1021 212 1030 q 267 998 252 1013 q 291 963 282 983 q 300 920 300 943 z "},"k":{"ha":766,"x_min":94,"x_max":751,"o":"m 265 1032 l 265 441 l 297 441 q 324 446 315 441 q 345 464 334 451 l 522 683 q 547 705 534 697 q 582 713 560 713 l 739 713 l 517 448 q 493 421 506 433 q 466 400 481 409 q 492 376 481 390 q 514 346 503 362 l 751 0 l 597 0 q 563 7 576 0 q 538 31 549 14 l 356 301 q 335 322 346 317 q 304 326 325 326 l 265 326 l 265 0 l 94 0 l 94 1032 l 265 1032 z "},"l":{"ha":376,"x_min":103,"x_max":274,"o":"m 274 1032 l 274 0 l 103 0 l 103 1032 l 274 1032 z "},"m":{"ha":1169,"x_min":92,"x_max":1092,"o":"m 92 0 l 92 713 l 197 713 q 240 681 230 713 l 251 628 q 291 667 270 649 q 334 697 311 684 q 384 716 358 709 q 443 724 411 724 q 554 687 510 724 q 619 590 597 651 q 660 651 635 626 q 715 692 685 676 q 779 716 745 708 q 847 724 813 724 q 951 706 906 724 q 1028 653 997 688 q 1076 568 1060 618 q 1092 453 1092 518 l 1092 0 l 921 0 l 921 453 q 891 556 921 522 q 803 590 861 590 q 755 581 777 590 q 715 555 732 572 q 688 513 698 538 q 678 453 678 487 l 678 0 l 506 0 l 506 453 q 477 558 506 525 q 392 590 449 590 q 323 572 356 590 q 263 522 291 553 l 263 0 l 92 0 z "},"n":{"ha":790,"x_min":92,"x_max":713,"o":"m 92 0 l 92 713 l 197 713 q 240 681 230 713 l 252 625 q 298 665 274 647 q 348 697 322 683 q 406 717 375 710 q 472 724 436 724 q 576 704 531 724 q 651 648 621 684 q 697 563 681 613 q 713 453 713 513 l 713 0 l 541 0 l 541 453 q 511 555 541 519 q 420 590 481 590 q 337 570 376 590 q 263 515 298 550 l 263 0 l 92 0 z "},"o":{"ha":790,"x_min":42,"x_max":747,"o":"m 396 724 q 541 698 476 724 q 651 625 606 672 q 722 510 697 578 q 747 358 747 442 q 722 205 747 273 q 651 89 697 137 q 541 15 606 41 q 396 -10 476 -10 q 251 15 316 -10 q 139 89 185 41 q 68 205 93 137 q 42 358 42 273 q 68 510 42 442 q 139 625 93 578 q 251 698 185 672 q 396 724 316 724 m 396 122 q 527 181 485 122 q 570 356 570 241 q 527 532 570 472 q 396 592 485 592 q 263 532 306 592 q 219 356 219 471 q 263 182 219 242 q 396 122 306 122 z "},"p":{"ha":785,"x_min":92,"x_max":747,"o":"m 92 -233 l 92 713 l 197 713 q 225 705 213 713 q 240 681 237 697 l 254 615 q 353 695 297 665 q 484 726 409 726 q 591 701 542 726 q 674 631 639 677 q 728 517 709 585 q 747 362 747 449 q 726 214 747 282 q 664 96 704 146 q 568 18 624 46 q 441 -10 511 -10 q 339 8 381 -10 q 263 59 297 26 l 263 -233 l 92 -233 m 425 590 q 334 568 372 590 q 263 504 296 545 l 263 185 q 327 134 292 149 q 401 120 361 120 q 471 135 440 120 q 525 179 503 149 q 558 255 547 209 q 570 362 570 300 q 560 468 570 424 q 531 538 550 511 q 486 578 513 565 q 425 590 459 590 z "},"q":{"ha":792,"x_min":42,"x_max":698,"o":"m 698 713 l 698 -233 l 526 -233 l 526 90 q 481 48 505 67 q 430 17 457 30 q 372 -3 403 4 q 306 -10 342 -10 q 199 14 248 -10 q 116 84 151 38 q 61 199 81 131 q 42 354 42 267 q 64 501 42 433 q 126 619 85 569 q 222 698 166 669 q 349 726 278 726 q 409 720 382 726 q 460 703 437 714 q 503 676 483 692 q 540 642 522 661 l 549 681 q 565 705 553 697 q 593 713 576 713 l 698 713 m 365 126 q 456 148 418 126 q 526 211 493 170 l 526 531 q 463 581 497 566 q 389 595 428 595 q 318 581 350 595 q 265 536 287 566 q 231 461 243 507 q 219 354 219 416 q 230 248 219 292 q 258 177 240 205 q 304 138 277 150 q 365 126 331 126 z "},"r":{"ha":567,"x_min":92,"x_max":546,"o":"m 92 0 l 92 713 l 192 713 q 229 703 219 713 q 243 669 240 693 l 253 583 q 343 688 292 649 q 458 726 394 726 q 546 701 511 726 l 524 573 q 515 555 522 560 q 496 550 508 550 q 467 555 485 550 q 419 560 449 560 q 328 530 366 560 q 263 444 290 501 l 263 0 l 92 0 z "},"s":{"ha":607,"x_min":29,"x_max":561,"o":"m 515 574 q 500 558 508 563 q 481 553 492 553 q 454 560 468 553 q 421 576 440 567 q 378 592 402 585 q 322 599 354 599 q 242 577 271 599 q 213 521 213 556 q 227 482 213 498 q 267 455 242 467 q 323 434 292 443 q 387 413 354 424 q 451 388 419 402 q 507 352 482 374 q 546 299 531 330 q 561 226 561 269 q 542 131 561 174 q 488 56 524 88 q 398 7 451 24 q 276 -11 345 -11 q 205 -5 240 -11 q 137 14 169 2 q 77 42 105 26 q 29 76 50 58 l 69 142 q 87 160 76 153 q 113 166 97 166 q 143 157 129 166 q 176 138 158 148 q 220 118 195 127 q 285 109 246 109 q 337 116 315 109 q 373 135 359 124 q 394 163 388 147 q 401 195 401 178 q 386 236 401 220 q 346 264 371 252 q 290 285 322 276 q 225 306 258 294 q 161 332 192 317 q 105 369 129 347 q 65 426 80 392 q 50 506 50 459 q 67 590 50 550 q 118 659 85 629 q 202 706 152 688 q 319 724 253 724 q 453 699 392 724 q 553 635 513 675 l 515 574 z "},"t":{"ha":538,"x_min":27,"x_max":513,"o":"m 326 -11 q 183 41 233 -11 q 133 186 133 94 l 133 584 l 61 584 q 37 593 47 584 q 27 620 27 602 l 27 688 l 142 707 l 178 901 q 191 923 181 915 q 216 931 201 931 l 305 931 l 305 706 l 492 706 l 492 584 l 305 584 l 305 198 q 322 146 305 165 q 366 127 338 127 q 393 131 382 127 q 411 139 403 135 q 426 147 419 143 q 438 151 432 151 q 451 147 446 151 q 461 135 456 143 l 513 52 q 426 5 475 21 q 326 -11 378 -11 z "},"u":{"ha":790,"x_min":77,"x_max":698,"o":"m 249 713 l 249 260 q 279 159 249 194 q 369 123 309 123 q 453 143 414 123 q 526 197 492 163 l 526 713 l 698 713 l 698 0 l 593 0 q 549 31 560 0 l 538 88 q 492 48 515 66 q 441 16 468 29 q 384 -4 415 3 q 317 -11 353 -11 q 214 9 259 -11 q 139 65 169 28 q 93 150 108 101 q 77 260 77 200 l 77 713 l 249 713 z "},"v":{"ha":741,"x_min":10,"x_max":731,"o":"m 449 0 l 293 0 l 10 713 l 152 713 q 184 703 171 713 q 201 681 197 694 l 339 300 q 359 235 351 267 q 373 171 367 203 q 387 235 379 203 q 408 300 395 267 l 549 681 q 566 703 553 694 q 596 713 578 713 l 731 713 l 449 0 z "},"w":{"ha":1099,"x_min":5,"x_max":1094,"o":"m 5 713 l 141 713 q 174 703 160 713 q 190 681 187 694 l 292 300 q 306 239 301 269 q 316 179 311 209 q 332 239 324 209 q 351 300 341 269 l 469 682 q 485 705 473 696 q 515 714 498 714 l 590 714 q 622 705 609 714 q 638 682 634 696 l 755 293 q 771 235 764 263 q 785 178 778 207 q 796 238 790 208 q 811 300 802 268 l 917 681 q 933 703 920 694 q 964 713 947 713 l 1094 713 l 868 0 l 730 0 q 698 31 708 0 l 569 442 q 558 483 563 463 q 549 524 553 503 q 540 482 545 503 q 529 441 535 462 l 399 31 q 362 0 390 0 l 231 0 l 5 713 z "},"x":{"ha":750,"x_min":17,"x_max":733,"o":"m 260 367 l 26 713 l 192 713 q 219 707 210 713 q 235 690 228 702 l 385 452 q 393 476 388 464 q 406 499 399 488 l 526 687 q 544 706 535 700 q 566 713 553 713 l 724 713 l 489 375 l 733 0 l 568 0 q 538 10 549 0 q 519 32 526 19 l 367 280 q 350 238 361 255 l 217 32 q 198 10 209 20 q 170 0 187 0 l 17 0 l 260 367 z "},"y":{"ha":741,"x_min":5,"x_max":733,"o":"m 344 -196 q 325 -223 337 -214 q 288 -233 313 -233 l 160 -233 l 293 53 l 5 713 l 155 713 q 187 703 176 713 q 203 681 198 693 l 356 311 q 369 274 363 293 q 378 235 374 254 q 391 274 384 255 q 405 312 397 292 l 548 681 q 566 703 553 694 q 595 713 579 713 l 733 713 l 344 -196 z "},"z":{"ha":652,"x_min":47,"x_max":607,"o":"m 607 642 q 600 607 607 624 q 585 578 594 590 l 246 132 l 597 132 l 597 0 l 47 0 l 47 72 q 52 100 47 83 q 69 131 58 116 l 411 581 l 67 581 l 67 713 l 607 713 l 607 642 z "},"{":{"ha":417,"x_min":20,"x_max":366,"o":"m 103 285 q 84 354 103 327 q 20 381 64 381 l 20 480 q 84 507 64 480 q 103 576 103 533 q 99 641 103 608 q 89 706 94 673 q 78 771 83 738 q 74 838 74 804 q 89 934 74 891 q 136 1009 104 978 q 216 1057 167 1040 q 329 1074 264 1074 l 366 1074 l 366 998 q 362 982 366 989 q 352 972 358 976 q 340 965 347 967 q 329 963 334 963 l 323 963 q 249 933 274 963 q 223 849 223 902 q 227 775 223 810 q 236 707 231 740 q 244 642 240 674 q 249 578 249 610 q 241 528 249 551 q 220 485 234 504 q 186 451 206 466 q 141 430 166 437 q 186 408 166 422 q 220 374 206 394 q 241 331 234 355 q 249 282 249 308 q 244 217 249 249 q 236 152 240 185 q 227 84 231 119 q 223 11 223 49 q 249 -72 223 -42 q 323 -103 274 -103 l 329 -103 q 340 -105 334 -103 q 352 -111 347 -107 q 362 -122 358 -115 q 366 -138 366 -129 l 366 -214 l 329 -214 q 216 -197 264 -214 q 136 -149 167 -180 q 89 -75 104 -118 q 74 22 74 -31 q 78 89 74 56 q 89 154 83 122 q 99 219 94 187 q 103 285 103 252 z "},"|":{"ha":417,"x_min":142,"x_max":275,"o":"m 142 1074 l 275 1074 l 275 -233 l 142 -233 l 142 1074 z "},"}":{"ha":417,"x_min":51,"x_max":397,"o":"m 313 285 q 318 219 313 252 q 328 154 322 187 q 339 89 334 122 q 343 22 343 56 q 328 -75 343 -31 q 281 -149 313 -118 q 201 -197 249 -180 q 88 -214 153 -214 l 51 -214 l 51 -138 q 55 -122 51 -129 q 64 -111 58 -115 q 76 -105 70 -107 q 88 -103 83 -103 l 94 -103 q 168 -72 142 -103 q 194 11 194 -42 q 190 84 194 49 q 181 152 185 119 q 172 217 176 185 q 168 282 168 249 q 175 331 168 308 q 197 374 183 355 q 231 408 210 394 q 276 430 251 422 q 231 451 251 437 q 197 485 210 466 q 175 528 183 504 q 168 578 168 551 q 172 642 168 610 q 181 707 176 674 q 190 775 185 740 q 194 849 194 810 q 168 933 194 902 q 94 963 142 963 l 88 963 q 76 965 83 963 q 64 972 70 967 q 55 982 58 976 q 51 998 51 989 l 51 1074 l 88 1074 q 201 1057 153 1074 q 281 1009 249 1040 q 328 934 313 978 q 343 838 343 891 q 339 771 343 804 q 328 706 334 738 q 318 641 322 673 q 313 576 313 608 q 333 507 313 533 q 397 480 353 480 l 397 381 q 333 354 353 381 q 313 285 313 327 z "},"~":{"ha":806,"x_min":68,"x_max":738,"o":"m 517 450 q 578 475 556 450 q 599 545 599 500 l 738 545 q 723 448 738 492 q 682 374 709 405 q 617 326 656 343 q 528 310 578 310 q 457 319 491 310 q 393 341 424 329 q 337 362 363 352 q 288 372 310 372 q 228 347 249 372 q 206 276 206 322 l 68 276 q 82 373 68 330 q 123 448 97 417 q 189 495 150 478 q 278 512 228 512 q 348 502 315 512 q 412 481 382 492 q 469 460 442 469 q 517 450 495 450 z "}," ":{"ha":268,"x_min":0,"x_max":0,"o":""},"¡":{"ha":501,"x_min":145,"x_max":356,"o":"m 172 -233 l 172 138 q 178 261 172 201 q 194 390 184 322 l 310 390 q 327 261 321 322 q 333 138 333 201 l 333 -233 l 172 -233 m 145 619 q 153 661 145 642 q 175 694 161 680 q 208 716 189 708 q 250 724 228 724 q 291 716 272 724 q 325 694 310 708 q 347 661 339 680 q 356 619 356 642 q 347 578 356 597 q 325 545 339 559 q 291 523 310 531 q 250 515 272 515 q 208 523 228 515 q 175 545 189 531 q 153 578 161 559 q 145 619 145 597 z "},"¢":{"ha":806,"x_min":85,"x_max":732,"o":"m 374 -6 q 260 32 313 3 q 168 106 207 60 q 107 215 129 152 q 85 356 85 278 q 108 498 85 432 q 176 612 131 563 q 286 690 221 660 q 437 722 352 719 l 447 831 q 460 861 448 847 q 493 874 473 874 l 556 874 l 542 715 q 642 682 597 706 q 724 624 686 659 l 679 564 q 665 549 672 554 q 644 544 658 544 q 624 549 635 544 q 600 560 614 553 q 570 574 587 567 q 531 587 553 581 l 491 119 q 552 133 528 123 q 595 153 577 143 q 626 172 613 164 q 653 181 639 181 q 685 166 674 181 l 732 105 q 678 56 708 76 q 617 23 649 36 q 551 2 585 9 q 480 -8 516 -6 l 472 -110 q 458 -141 470 -127 q 425 -154 445 -154 l 362 -154 l 374 -6 m 255 356 q 289 206 255 263 q 386 128 323 149 l 426 592 q 297 519 338 581 q 255 356 255 458 z "},"£":{"ha":806,"x_min":27,"x_max":781,"o":"m 27 472 q 42 512 27 495 q 85 529 56 529 l 160 529 l 160 693 q 179 817 160 758 q 238 920 199 876 q 338 990 278 964 q 478 1015 397 1015 q 577 1001 533 1015 q 656 963 622 987 q 716 905 690 938 q 759 834 741 872 l 690 790 q 651 779 668 779 q 605 802 625 779 q 579 830 592 817 q 551 852 566 843 q 518 866 536 861 q 478 871 501 871 q 371 824 406 871 q 335 694 335 777 l 335 529 l 619 529 l 619 461 q 606 431 619 444 q 571 417 592 417 l 335 417 l 335 282 q 318 200 335 236 q 272 134 301 165 q 374 146 323 146 l 781 146 l 781 74 q 775 48 781 61 q 760 24 770 35 q 737 7 751 13 q 707 0 724 0 l 41 0 l 41 108 q 86 123 65 113 q 124 149 108 133 q 150 186 140 165 q 160 235 160 207 l 160 417 l 27 417 l 27 472 z "},"¤":{"ha":806,"x_min":76,"x_max":729,"o":"m 147 467 q 156 537 147 504 q 183 599 165 570 l 76 705 l 163 790 l 267 685 q 331 714 297 703 q 403 724 365 724 q 472 714 439 724 q 535 688 506 705 l 640 793 l 726 708 l 621 603 q 649 539 639 573 q 659 467 659 505 q 650 398 659 431 q 623 336 640 365 l 729 231 l 642 145 l 538 249 q 474 222 508 231 q 403 212 440 212 q 334 221 367 212 q 272 247 301 230 l 165 142 l 80 228 l 185 332 q 157 396 167 362 q 147 467 147 430 m 273 467 q 283 417 273 441 q 311 375 293 393 q 352 347 328 358 q 403 337 376 337 q 454 347 430 337 q 495 375 478 358 q 524 417 513 393 q 534 467 534 441 q 524 519 534 495 q 495 561 513 543 q 454 589 478 578 q 403 599 430 599 q 352 589 376 599 q 311 561 328 578 q 283 519 293 543 q 273 467 273 495 z "},"¥":{"ha":806,"x_min":8,"x_max":793,"o":"m 92 440 l 284 440 l 8 1004 l 150 1004 q 190 993 174 1004 q 213 963 205 981 l 365 624 q 388 566 379 592 q 401 514 396 540 q 415 566 407 540 q 437 624 423 593 l 588 963 q 610 991 595 978 q 649 1004 626 1004 l 793 1004 l 516 440 l 708 440 l 708 344 l 486 344 l 486 278 l 708 278 l 708 183 l 486 183 l 486 0 l 315 0 l 315 183 l 92 183 l 92 278 l 315 278 l 315 344 l 92 344 l 92 440 z "},"¦":{"ha":417,"x_min":142,"x_max":275,"o":"m 142 1074 l 275 1074 l 275 513 l 142 513 l 142 1074 m 142 328 l 275 328 l 275 -233 l 142 -233 l 142 328 z "},"§":{"ha":701,"x_min":65,"x_max":644,"o":"m 574 865 q 560 849 567 853 q 540 844 552 844 q 513 851 527 844 q 480 866 499 858 q 437 882 461 875 q 381 889 413 889 q 329 882 351 889 q 292 864 307 876 q 269 838 277 853 q 261 805 261 822 q 277 766 261 783 q 321 734 294 749 q 382 706 348 719 q 453 676 417 692 q 523 642 489 660 q 585 599 558 623 q 628 542 612 574 q 644 469 644 510 q 618 367 644 413 q 535 294 592 322 q 586 234 566 268 q 606 153 606 200 q 587 58 606 101 q 533 -17 569 15 q 443 -66 497 -49 q 321 -84 390 -84 q 249 -77 284 -84 q 182 -59 214 -71 q 122 -31 149 -47 q 74 3 94 -15 l 114 69 q 132 87 122 81 q 158 93 142 93 q 188 84 174 93 q 222 65 202 75 q 268 45 241 54 q 336 36 295 36 q 425 60 393 36 q 456 125 456 83 q 440 173 456 153 q 395 209 423 193 q 332 237 367 224 q 261 265 297 250 q 189 297 224 279 q 126 339 154 315 q 82 397 99 363 q 65 476 65 430 q 94 574 65 531 q 182 643 123 617 q 130 707 150 670 q 110 797 110 744 q 127 880 110 841 q 178 949 144 919 q 262 997 212 979 q 378 1015 312 1015 q 512 990 451 1015 q 613 926 573 966 l 574 865 m 217 503 q 238 453 217 474 q 290 415 258 432 q 363 382 322 398 q 442 349 403 367 q 483 384 470 363 q 495 430 495 405 q 476 482 495 460 q 425 520 456 503 q 355 553 394 538 q 276 586 315 568 q 231 550 245 569 q 217 503 217 530 z "},"¨":{"ha":443,"x_min":-4,"x_max":447,"o":"m 188 897 q 180 861 188 878 q 159 831 172 844 q 127 811 145 819 q 90 804 110 804 q 55 811 72 804 q 24 831 38 819 q 3 861 11 844 q -4 897 -4 878 q 3 935 -4 917 q 24 966 11 953 q 55 987 38 979 q 90 994 72 994 q 127 987 110 994 q 159 966 145 979 q 180 935 172 953 q 188 897 188 917 m 447 897 q 440 861 447 878 q 419 831 432 844 q 388 811 406 819 q 351 804 370 804 q 314 811 331 804 q 284 831 297 819 q 263 861 271 844 q 256 897 256 878 q 263 935 256 917 q 284 966 271 953 q 314 987 297 979 q 351 994 331 994 q 388 987 370 994 q 419 966 406 979 q 440 935 432 953 q 447 897 447 917 z "},"©":{"ha":1099,"x_min":37,"x_max":1063,"o":"m 706 356 q 720 352 714 356 q 731 344 726 349 l 788 283 q 690 208 749 234 q 551 182 631 182 q 425 207 481 182 q 329 275 369 231 q 267 377 289 318 q 246 504 246 435 q 270 634 246 575 q 338 736 294 693 q 439 802 381 778 q 565 826 497 826 q 698 800 642 826 q 790 733 753 774 l 745 672 q 734 660 741 666 q 715 655 727 655 q 693 662 703 655 q 668 677 683 669 q 631 692 653 685 q 574 699 609 699 q 499 686 532 699 q 444 647 467 672 q 410 585 422 622 q 398 504 398 549 q 410 421 398 457 q 444 360 422 385 q 495 323 465 335 q 559 310 524 310 q 615 315 593 310 q 652 328 637 321 q 679 344 667 336 q 706 356 691 351 m 37 502 q 55 639 37 573 q 107 761 74 704 q 187 865 140 818 q 291 945 234 912 q 413 997 348 978 q 549 1015 478 1015 q 686 997 620 1015 q 808 945 751 978 q 912 865 865 912 q 992 761 959 818 q 1044 639 1026 704 q 1063 502 1063 573 q 1044 366 1063 432 q 992 244 1026 301 q 912 141 959 188 q 808 60 865 94 q 686 9 751 27 q 549 -10 620 -10 q 413 9 478 -10 q 291 60 348 27 q 187 141 234 94 q 107 244 140 188 q 55 366 74 301 q 37 502 37 431 m 131 502 q 163 333 131 412 q 252 197 195 255 q 385 106 308 139 q 549 72 461 72 q 715 106 638 72 q 849 197 792 139 q 938 333 906 255 q 971 502 971 412 q 956 618 971 563 q 914 722 941 674 q 848 809 887 770 q 763 877 810 849 q 663 920 717 905 q 549 935 608 935 q 436 920 490 935 q 336 877 383 905 q 252 809 290 849 q 187 722 214 770 q 145 618 160 674 q 131 502 131 563 z "},"ª":{"ha":483,"x_min":56,"x_max":432,"o":"m 432 584 l 374 584 q 348 589 358 584 q 333 609 338 593 l 324 634 q 292 610 308 620 q 261 592 277 599 q 227 582 245 585 q 185 578 208 578 q 133 586 156 578 q 92 609 109 594 q 66 645 75 624 q 56 696 56 667 q 68 743 56 719 q 109 786 80 767 q 188 818 138 806 q 312 833 237 831 l 312 851 q 295 904 312 888 q 248 919 279 919 q 209 915 224 919 q 182 903 194 910 q 160 892 170 897 q 135 888 149 888 q 113 894 122 888 q 99 910 103 901 l 77 950 q 163 1002 116 985 q 263 1018 209 1018 q 333 1006 302 1018 q 386 970 365 993 q 420 917 408 948 q 432 851 432 887 l 432 584 m 224 663 q 271 672 251 663 q 312 701 291 681 l 312 758 q 244 751 271 756 q 202 739 218 747 q 181 723 187 732 q 174 702 174 713 q 187 671 174 680 q 224 663 200 663 z "},"«":{"ha":675,"x_min":85,"x_max":574,"o":"m 85 363 l 85 385 l 263 660 l 319 633 q 340 617 333 627 q 346 596 346 608 q 337 566 346 581 l 241 403 q 219 374 231 385 q 241 344 230 364 l 337 181 q 346 150 346 165 q 319 114 346 126 l 263 88 l 85 363 m 314 363 l 314 385 l 492 660 l 548 633 q 568 617 562 627 q 574 596 574 608 q 565 566 574 581 l 469 403 q 447 374 460 385 q 469 344 458 364 l 565 181 q 574 150 574 165 q 548 114 574 126 l 492 88 l 314 363 z "},"¬":{"ha":806,"x_min":94,"x_max":710,"o":"m 94 530 l 710 530 l 710 206 l 565 206 l 565 403 l 94 403 l 94 530 z "},"­":{"ha":499,"x_min":69,"x_max":429,"o":"m 69 491 l 429 491 l 429 348 l 69 348 l 69 491 z "},"®":{"ha":1099,"x_min":37,"x_max":1063,"o":"m 37 502 q 55 639 37 573 q 107 761 74 704 q 187 865 140 818 q 291 945 234 912 q 413 997 348 978 q 549 1015 478 1015 q 686 997 620 1015 q 808 945 751 978 q 912 865 865 912 q 992 761 959 818 q 1044 639 1026 704 q 1063 502 1063 573 q 1044 366 1063 432 q 992 244 1026 301 q 912 141 959 188 q 808 60 865 94 q 686 9 751 27 q 549 -10 620 -10 q 413 9 478 -10 q 291 60 348 27 q 187 141 234 94 q 107 244 140 188 q 55 366 74 301 q 37 502 37 431 m 131 502 q 163 333 131 412 q 252 197 195 255 q 385 106 308 139 q 549 72 461 72 q 715 106 638 72 q 849 197 792 139 q 938 333 906 255 q 971 502 971 412 q 956 618 971 563 q 914 722 941 674 q 848 809 887 770 q 763 877 810 849 q 663 920 717 905 q 549 935 608 935 q 436 920 490 935 q 336 877 383 905 q 252 809 290 849 q 187 722 214 770 q 145 618 160 674 q 131 502 131 563 m 472 418 l 472 192 l 323 192 l 323 815 l 546 815 q 736 769 676 815 q 797 635 797 722 q 765 527 797 574 q 665 460 733 481 q 692 437 681 451 q 713 406 702 424 l 838 192 l 695 192 q 651 215 664 192 l 551 398 q 536 413 544 408 q 510 418 527 418 l 472 418 m 472 524 l 533 524 q 592 530 569 524 q 627 548 615 536 q 645 577 640 560 q 650 617 650 594 q 646 655 650 638 q 630 682 642 671 q 598 698 619 692 q 546 703 578 703 l 472 703 l 472 524 z "},"¯":{"ha":443,"x_min":14,"x_max":429,"o":"m 14 953 l 429 953 l 429 843 l 14 843 l 14 953 z "},"°":{"ha":558,"x_min":38,"x_max":519,"o":"m 38 780 q 57 873 38 829 q 107 948 75 916 q 183 998 140 980 q 278 1017 227 1017 q 373 998 328 1017 q 449 948 417 980 q 501 873 482 916 q 519 780 519 829 q 501 689 519 732 q 449 614 482 646 q 373 563 417 581 q 278 544 328 544 q 183 563 227 544 q 107 614 140 581 q 57 689 75 646 q 38 780 38 732 m 158 778 q 167 731 158 753 q 192 692 176 708 q 230 666 208 676 q 278 657 252 657 q 326 666 303 657 q 364 692 348 676 q 390 731 381 708 q 399 778 399 753 q 390 827 399 805 q 364 867 381 850 q 326 893 348 883 q 278 903 303 903 q 230 893 252 903 q 192 867 208 883 q 167 827 176 850 q 158 778 158 805 z "},"±":{"ha":806,"x_min":63,"x_max":741,"o":"m 471 862 l 471 616 l 741 616 l 741 488 l 471 488 l 471 251 l 332 251 l 332 488 l 63 488 l 63 616 l 332 616 l 332 862 l 471 862 m 63 183 l 741 183 l 741 56 l 63 56 l 63 183 z "},"²":{"ha":463,"x_min":48,"x_max":424,"o":"m 243 1145 q 315 1133 283 1145 q 368 1101 347 1122 q 401 1054 390 1081 q 413 994 413 1026 q 404 942 413 966 q 381 897 395 919 q 348 856 367 876 q 309 815 329 835 l 220 724 q 258 733 240 730 q 293 736 277 736 l 383 736 q 413 726 402 736 q 424 698 424 715 l 424 625 l 48 625 l 48 665 q 52 690 48 676 q 68 714 57 703 l 213 857 q 242 889 228 872 q 266 923 256 906 q 282 957 276 940 q 288 990 288 974 q 274 1031 288 1015 q 236 1047 260 1047 q 199 1035 213 1047 q 176 1002 185 1024 q 160 983 169 990 q 135 977 151 977 q 128 977 132 977 q 119 978 124 978 l 51 989 q 114 1107 63 1069 q 243 1145 165 1145 z "},"³":{"ha":463,"x_min":51,"x_max":425,"o":"m 250 1145 q 320 1134 290 1145 q 372 1103 351 1122 q 405 1061 394 1085 q 416 1011 416 1037 q 398 937 416 967 q 340 890 380 907 q 403 851 382 876 q 425 785 425 826 q 409 711 425 742 q 367 659 393 680 q 309 629 342 639 q 243 619 276 619 q 176 627 206 619 q 123 650 146 634 q 82 693 99 667 q 51 759 65 720 l 105 781 q 133 786 120 786 q 168 767 158 786 q 178 751 172 759 q 192 736 183 742 q 211 725 200 729 q 237 721 222 721 q 285 738 268 721 q 301 780 301 756 q 297 811 301 799 q 280 831 292 824 q 249 842 269 839 q 200 845 229 845 l 200 926 q 248 930 229 926 q 278 943 267 935 q 293 963 289 951 q 298 989 298 974 q 284 1030 298 1015 q 244 1044 271 1044 q 205 1033 219 1044 q 183 1003 191 1022 q 169 983 177 990 q 147 976 160 976 q 128 978 139 976 l 65 989 q 87 1058 71 1028 q 128 1107 103 1088 q 183 1136 152 1126 q 250 1145 215 1145 z "},"´":{"ha":443,"x_min":131,"x_max":462,"o":"m 462 1015 l 290 834 q 265 815 277 820 q 233 810 253 810 l 131 810 l 229 978 q 253 1006 240 997 q 295 1015 267 1015 l 462 1015 z "},"µ":{"ha":790,"x_min":77,"x_max":698,"o":"m 249 713 l 249 260 q 279 159 249 194 q 369 123 309 123 q 453 143 414 123 q 526 197 492 163 l 526 713 l 698 713 l 698 0 l 593 0 q 549 31 560 0 l 538 89 q 495 52 516 67 q 453 28 474 38 q 408 15 431 19 q 358 10 385 10 q 284 23 317 10 q 225 58 251 35 q 235 -5 233 28 q 238 -66 238 -37 l 238 -233 l 153 -233 q 97 -214 117 -233 q 77 -161 77 -196 l 77 713 l 249 713 z "},"¶":{"ha":973,"x_min":23,"x_max":951,"o":"m 951 1004 l 951 860 l 803 860 l 803 -145 l 653 -145 l 653 860 l 490 860 l 490 -145 l 340 -145 l 340 438 q 209 460 267 438 q 109 521 151 483 q 45 611 68 560 q 23 720 23 663 q 45 835 23 783 q 109 925 68 888 q 209 983 151 963 q 340 1004 267 1004 l 951 1004 z "},"·":{"ha":388,"x_min":63,"x_max":325,"o":"m 63 413 q 73 464 63 440 q 101 506 83 488 q 142 534 119 524 q 193 544 166 544 q 245 534 221 544 q 286 506 269 524 q 315 464 304 488 q 325 413 325 440 q 315 363 325 386 q 286 322 304 340 q 245 294 269 304 q 193 284 221 284 q 142 294 166 284 q 101 322 119 304 q 73 363 83 340 q 63 413 63 386 z "},"¸":{"ha":443,"x_min":92,"x_max":363,"o":"m 127 -158 q 137 -159 132 -158 q 149 -162 142 -160 q 164 -166 156 -165 q 183 -167 172 -167 q 217 -159 206 -167 q 228 -137 228 -150 q 203 -109 228 -117 q 126 -93 178 -100 l 158 10 l 265 10 l 251 -38 q 338 -80 313 -53 q 363 -141 363 -106 q 350 -183 363 -164 q 316 -215 338 -201 q 263 -235 294 -228 q 194 -242 231 -242 q 141 -238 165 -242 q 92 -226 116 -234 l 108 -174 q 127 -158 112 -158 z "},"¹":{"ha":463,"x_min":66,"x_max":411,"o":"m 112 704 l 208 704 l 208 954 l 212 990 l 158 947 q 135 939 147 939 q 116 943 124 939 q 104 953 108 947 l 66 1005 l 228 1140 l 331 1140 l 331 704 l 411 704 l 411 625 l 112 625 l 112 704 z "},"º":{"ha":539,"x_min":42,"x_max":497,"o":"m 271 1017 q 363 1001 321 1017 q 434 958 404 986 q 480 889 464 930 q 497 798 497 849 q 480 705 497 747 q 434 635 464 664 q 363 591 404 606 q 271 576 321 576 q 177 591 219 576 q 106 635 135 606 q 59 705 76 664 q 42 798 42 747 q 59 889 42 849 q 106 958 76 930 q 177 1001 135 986 q 271 1017 219 1017 m 271 676 q 340 705 317 676 q 363 797 363 735 q 340 888 363 858 q 271 917 317 917 q 199 888 222 917 q 176 797 176 858 q 199 705 176 735 q 271 676 222 676 z "},"»":{"ha":675,"x_min":100,"x_max":589,"o":"m 183 88 l 126 114 q 106 130 113 120 q 100 151 100 140 q 109 181 100 165 l 205 344 q 227 374 216 364 q 205 403 215 385 l 109 566 q 100 596 100 581 q 126 633 100 621 l 183 660 l 360 385 l 360 363 l 183 88 m 411 88 l 355 114 q 335 130 341 120 q 328 151 328 140 q 338 181 328 165 l 433 344 q 456 374 444 364 q 433 403 443 385 l 338 566 q 328 596 328 581 q 355 633 328 621 l 411 660 l 589 385 l 589 363 l 411 88 z "},"¼":{"ha":989,"x_min":53,"x_max":982,"o":"m 316 49 q 277 10 298 21 q 231 0 257 0 l 157 0 l 736 948 q 774 989 752 974 q 826 1004 795 1004 l 899 1004 l 316 49 m 917 196 l 982 196 l 982 135 q 976 119 982 126 q 958 112 969 112 l 917 112 l 917 0 l 814 0 l 814 112 l 613 112 q 587 119 597 112 q 576 138 578 126 l 565 190 l 798 515 l 917 515 l 917 196 m 99 569 l 195 569 l 195 819 l 199 855 l 145 813 q 122 804 134 804 q 103 808 111 804 q 91 818 94 813 l 53 870 l 215 1005 l 318 1005 l 318 569 l 398 569 l 398 490 l 99 490 l 99 569 m 814 313 q 815 348 814 328 q 819 388 816 367 l 678 196 l 814 196 l 814 313 z "},"½":{"ha":989,"x_min":53,"x_max":964,"o":"m 288 49 q 249 10 269 21 q 202 0 228 0 l 128 0 l 708 948 q 745 989 724 974 q 798 1004 767 1004 l 871 1004 l 288 49 m 783 520 q 855 508 824 520 q 909 476 887 497 q 942 429 931 456 q 953 369 953 401 q 944 317 953 341 q 921 272 935 294 q 888 231 907 251 q 849 190 869 210 l 760 99 q 799 108 780 105 q 833 111 817 111 l 923 111 q 953 101 942 111 q 964 73 964 90 l 964 0 l 588 0 l 588 40 q 593 65 588 51 q 608 89 597 78 l 753 232 q 783 264 769 247 q 806 298 797 281 q 822 332 816 315 q 828 365 828 349 q 814 406 828 390 q 776 422 801 422 q 740 411 753 422 q 717 377 727 400 q 676 352 706 352 q 668 352 672 352 q 660 353 665 353 l 591 364 q 654 482 603 444 q 783 520 706 520 m 99 569 l 195 569 l 195 819 l 199 855 l 145 813 q 122 804 134 804 q 103 808 111 804 q 91 818 94 813 l 53 870 l 215 1005 l 318 1005 l 318 569 l 398 569 l 398 490 l 99 490 l 99 569 z "},"¾":{"ha":990,"x_min":38,"x_max":982,"o":"m 318 49 q 280 10 300 21 q 233 0 259 0 l 159 0 l 738 948 q 776 989 754 974 q 828 1004 797 1004 l 901 1004 l 318 49 m 917 196 l 982 196 l 982 135 q 976 119 982 126 q 958 112 969 112 l 917 112 l 917 0 l 814 0 l 814 112 l 613 112 q 587 119 597 112 q 576 138 578 126 l 565 190 l 798 515 l 917 515 l 917 196 m 237 1010 q 307 999 276 1010 q 359 969 338 988 q 392 926 381 950 q 403 876 403 902 q 385 802 403 833 q 327 756 367 772 q 390 716 369 742 q 412 650 412 691 q 396 576 412 607 q 354 525 380 545 q 296 494 328 504 q 230 485 263 485 q 163 492 192 485 q 109 516 133 499 q 69 559 86 532 q 38 624 51 585 l 92 646 q 119 651 107 651 q 155 632 145 651 q 165 616 159 624 q 178 601 170 608 q 198 590 187 594 q 224 586 209 586 q 272 603 255 586 q 288 645 288 621 q 283 676 288 664 q 267 697 278 689 q 236 707 256 704 q 187 710 216 710 l 187 791 q 235 795 216 791 q 265 808 254 800 q 280 828 276 816 q 285 854 285 840 q 271 895 285 880 q 231 910 258 910 q 192 899 206 910 q 170 869 178 888 q 155 848 163 855 q 133 842 147 842 q 115 844 126 842 l 52 854 q 74 923 58 894 q 115 972 90 953 q 170 1001 139 992 q 237 1010 201 1010 m 814 313 q 815 348 814 328 q 819 388 816 367 l 678 196 l 814 196 l 814 313 z "},"¿":{"ha":584,"x_min":33,"x_max":569,"o":"m 569 -141 q 517 -180 545 -162 q 456 -213 489 -199 q 385 -235 424 -227 q 303 -243 347 -243 q 193 -227 242 -243 q 108 -181 143 -211 q 53 -109 72 -151 q 33 -12 33 -66 q 49 78 33 41 q 87 141 64 115 q 138 185 110 167 q 190 219 165 203 q 232 251 214 235 q 253 290 249 267 l 269 390 l 386 390 l 398 277 q 399 270 399 274 q 399 264 399 267 q 383 210 399 232 q 345 172 368 189 q 296 141 322 156 q 247 107 269 126 q 208 64 224 89 q 193 3 193 40 q 202 -41 193 -22 q 228 -75 212 -61 q 268 -97 245 -90 q 318 -105 291 -105 q 385 -96 358 -105 q 432 -76 413 -87 q 464 -57 451 -66 q 488 -48 477 -48 q 524 -69 513 -48 l 569 -141 m 225 619 q 233 660 225 641 q 255 694 241 680 q 289 716 269 708 q 331 724 308 724 q 372 716 352 724 q 405 694 391 708 q 427 660 419 680 q 435 619 435 641 q 427 578 435 597 q 405 545 419 559 q 372 523 391 531 q 331 515 352 515 q 289 523 308 515 q 255 545 269 531 q 233 578 241 559 q 225 619 225 597 z "},"À":{"ha":986,"x_min":4,"x_max":984,"o":"m 984 0 l 840 0 q 800 12 815 0 q 777 42 784 24 l 702 247 l 286 247 l 211 42 q 189 13 206 26 q 149 0 173 0 l 4 0 l 399 1004 l 590 1004 l 984 0 m 334 379 l 654 379 l 532 713 q 514 766 524 735 q 494 831 503 796 q 475 765 484 796 q 456 712 465 735 l 334 379 m 394 1244 q 418 1243 408 1244 q 436 1239 428 1242 q 451 1230 444 1235 q 466 1216 458 1224 l 603 1076 l 467 1076 q 450 1076 458 1076 q 437 1078 443 1076 q 424 1083 431 1080 q 410 1092 418 1087 l 204 1244 l 394 1244 z "},"Á":{"ha":986,"x_min":4,"x_max":984,"o":"m 984 0 l 840 0 q 800 12 815 0 q 777 42 784 24 l 702 247 l 286 247 l 211 42 q 189 13 206 26 q 149 0 173 0 l 4 0 l 399 1004 l 590 1004 l 984 0 m 334 379 l 654 379 l 532 713 q 514 766 524 735 q 494 831 503 796 q 475 765 484 796 q 456 712 465 735 l 334 379 m 760 1244 l 555 1094 q 541 1085 547 1088 q 527 1079 534 1081 q 514 1076 521 1077 q 497 1076 506 1076 l 362 1076 l 498 1216 q 514 1230 506 1224 q 528 1239 521 1235 q 546 1243 536 1242 q 569 1244 556 1244 l 760 1244 z "},"Â":{"ha":986,"x_min":4,"x_max":984,"o":"m 984 0 l 840 0 q 800 12 815 0 q 777 42 784 24 l 702 247 l 286 247 l 211 42 q 189 13 206 26 q 149 0 173 0 l 4 0 l 399 1004 l 590 1004 l 984 0 m 334 379 l 654 379 l 532 713 q 514 766 524 735 q 494 831 503 796 q 475 765 484 796 q 456 712 465 735 l 334 379 m 747 1076 l 617 1076 q 594 1078 607 1076 q 574 1087 582 1081 l 504 1133 q 499 1137 501 1135 q 494 1141 497 1139 q 490 1138 492 1140 q 483 1133 487 1135 l 413 1087 q 393 1078 406 1081 q 370 1076 381 1076 l 240 1076 l 408 1228 l 579 1228 l 747 1076 z "},"Ã":{"ha":986,"x_min":4,"x_max":984,"o":"m 984 0 l 840 0 q 800 12 815 0 q 777 42 784 24 l 702 247 l 286 247 l 211 42 q 189 13 206 26 q 149 0 173 0 l 4 0 l 399 1004 l 590 1004 l 984 0 m 334 379 l 654 379 l 532 713 q 514 766 524 735 q 494 831 503 796 q 475 765 484 796 q 456 712 465 735 l 334 379 m 579 1180 q 609 1191 598 1180 q 622 1224 621 1201 l 715 1224 q 706 1160 715 1189 q 680 1112 697 1132 q 639 1080 663 1092 q 583 1069 615 1069 q 535 1076 558 1069 q 491 1093 512 1084 q 451 1110 469 1102 q 418 1117 433 1117 q 388 1106 399 1117 q 376 1072 377 1094 l 282 1072 q 291 1135 282 1106 q 317 1185 300 1164 q 359 1217 335 1206 q 414 1228 383 1228 q 463 1221 439 1228 q 507 1204 486 1213 q 547 1188 528 1195 q 579 1180 565 1180 z "},"Ä":{"ha":986,"x_min":4,"x_max":984,"o":"m 984 0 l 840 0 q 800 12 815 0 q 777 42 784 24 l 702 247 l 286 247 l 211 42 q 189 13 206 26 q 149 0 173 0 l 4 0 l 399 1004 l 590 1004 l 984 0 m 334 379 l 654 379 l 532 713 q 514 766 524 735 q 494 831 503 796 q 475 765 484 796 q 456 712 465 735 l 334 379 m 437 1158 q 429 1122 437 1139 q 408 1093 422 1106 q 378 1074 395 1081 q 341 1067 360 1067 q 307 1074 323 1067 q 278 1093 290 1081 q 258 1122 265 1106 q 251 1158 251 1139 q 258 1193 251 1176 q 278 1223 265 1210 q 307 1244 290 1236 q 341 1251 323 1251 q 378 1244 360 1251 q 408 1223 395 1236 q 429 1193 422 1210 q 437 1158 437 1176 m 737 1158 q 730 1122 737 1139 q 710 1093 722 1106 q 680 1074 697 1081 q 644 1067 663 1067 q 608 1074 625 1067 q 578 1093 591 1081 q 558 1122 565 1106 q 551 1158 551 1139 q 558 1193 551 1176 q 578 1223 565 1210 q 608 1244 591 1236 q 644 1251 625 1251 q 680 1244 663 1251 q 710 1223 697 1236 q 730 1193 722 1210 q 737 1158 737 1176 z "},"Å":{"ha":986,"x_min":4,"x_max":984,"o":"m 984 0 l 840 0 q 800 12 815 0 q 777 42 784 24 l 702 247 l 286 247 l 211 42 q 189 13 206 26 q 149 0 173 0 l 4 0 l 399 1004 l 590 1004 l 984 0 m 334 379 l 654 379 l 532 713 q 514 766 524 735 q 494 831 503 796 q 475 765 484 796 q 456 712 465 735 l 334 379 m 351 1169 q 363 1223 351 1199 q 394 1265 374 1247 q 439 1292 413 1282 q 493 1301 465 1301 q 549 1292 523 1301 q 596 1265 576 1282 q 628 1223 616 1247 q 640 1169 640 1199 q 628 1116 640 1140 q 596 1074 616 1092 q 549 1048 576 1057 q 493 1038 523 1038 q 439 1048 465 1038 q 394 1074 413 1057 q 363 1116 374 1092 q 351 1169 351 1140 m 433 1169 q 449 1124 433 1142 q 496 1107 465 1107 q 540 1124 524 1107 q 557 1169 557 1142 q 540 1215 557 1198 q 496 1231 524 1231 q 449 1215 465 1231 q 433 1169 433 1198 z "},"Æ":{"ha":1297,"x_min":-19,"x_max":1236,"o":"m 1236 856 l 754 856 l 789 577 l 1142 577 l 1142 433 l 806 433 l 841 149 l 1236 149 l 1236 0 l 683 0 l 652 247 l 291 247 l 192 42 q 165 11 183 23 q 122 0 147 0 l -19 0 l 491 1004 l 1236 1004 l 1236 856 m 355 379 l 636 379 l 576 865 q 553 799 565 830 q 529 741 541 767 l 355 379 z "},"Ç":{"ha":931,"x_min":43,"x_max":897,"o":"m 439 -158 q 449 -159 444 -158 q 461 -162 454 -160 q 475 -166 467 -165 q 494 -167 483 -167 q 529 -159 517 -167 q 540 -137 540 -150 q 515 -109 540 -117 q 438 -93 490 -100 l 464 -8 q 288 45 366 3 q 156 154 210 87 q 72 309 101 221 q 43 502 43 398 q 81 709 43 615 q 186 872 118 803 q 349 977 254 940 q 558 1015 444 1015 q 754 980 670 1015 q 897 885 838 944 l 835 798 q 820 783 829 790 q 797 777 812 777 q 764 790 781 777 q 722 817 747 802 q 657 844 696 831 q 557 856 617 856 q 427 832 486 856 q 325 761 367 807 q 258 650 282 715 q 234 502 234 584 q 258 351 234 417 q 323 240 282 285 q 419 171 364 195 q 539 147 475 147 q 608 151 577 147 q 665 165 639 156 q 714 188 691 174 q 760 223 738 202 q 775 233 767 229 q 792 237 783 237 q 818 225 807 237 l 892 145 q 757 36 836 76 q 571 -10 678 -3 l 563 -38 q 649 -80 624 -53 q 674 -141 674 -106 q 662 -183 674 -164 q 628 -215 650 -201 q 574 -235 606 -228 q 506 -242 543 -242 q 452 -238 477 -242 q 403 -226 428 -234 l 419 -174 q 439 -158 424 -158 z "},"È":{"ha":795,"x_min":101,"x_max":735,"o":"m 735 1004 l 735 856 l 290 856 l 290 577 l 640 577 l 640 433 l 290 433 l 290 149 l 735 149 l 735 0 l 101 0 l 101 1004 l 735 1004 m 329 1244 q 353 1243 343 1244 q 370 1239 363 1242 q 385 1230 378 1235 q 401 1216 392 1224 l 538 1076 l 402 1076 q 385 1076 392 1076 q 372 1078 378 1076 q 359 1083 365 1080 q 345 1092 353 1087 l 139 1244 l 329 1244 z "},"É":{"ha":795,"x_min":101,"x_max":735,"o":"m 735 1004 l 735 856 l 290 856 l 290 577 l 640 577 l 640 433 l 290 433 l 290 149 l 735 149 l 735 0 l 101 0 l 101 1004 l 735 1004 m 695 1244 l 490 1094 q 475 1085 482 1088 q 462 1079 469 1081 q 448 1076 456 1077 q 431 1076 441 1076 l 297 1076 l 433 1216 q 448 1230 441 1224 q 463 1239 456 1235 q 481 1243 471 1242 q 504 1244 490 1244 l 695 1244 z "},"Ê":{"ha":795,"x_min":101,"x_max":735,"o":"m 735 1004 l 735 856 l 290 856 l 290 577 l 640 577 l 640 433 l 290 433 l 290 149 l 735 149 l 735 0 l 101 0 l 101 1004 l 735 1004 m 682 1076 l 552 1076 q 529 1078 542 1076 q 509 1087 517 1081 l 439 1133 q 434 1137 436 1135 q 428 1141 431 1139 q 424 1138 427 1140 q 418 1133 422 1135 l 348 1087 q 328 1078 340 1081 q 305 1076 315 1076 l 175 1076 l 343 1228 l 514 1228 l 682 1076 z "},"Ë":{"ha":795,"x_min":101,"x_max":735,"o":"m 735 1004 l 735 856 l 290 856 l 290 577 l 640 577 l 640 433 l 290 433 l 290 149 l 735 149 l 735 0 l 101 0 l 101 1004 l 735 1004 m 372 1158 q 364 1122 372 1139 q 343 1093 356 1106 q 313 1074 330 1081 q 276 1067 295 1067 q 241 1074 258 1067 q 213 1093 225 1081 q 193 1122 200 1106 q 185 1158 185 1139 q 193 1193 185 1176 q 213 1223 200 1210 q 241 1244 225 1236 q 276 1251 258 1251 q 313 1244 295 1251 q 343 1223 330 1236 q 364 1193 356 1210 q 372 1158 372 1176 m 672 1158 q 664 1122 672 1139 q 644 1093 657 1106 q 615 1074 632 1081 q 578 1067 598 1067 q 543 1074 560 1067 q 513 1093 526 1081 q 493 1122 500 1106 q 485 1158 485 1139 q 493 1193 485 1176 q 513 1223 500 1210 q 543 1244 526 1236 q 578 1251 560 1251 q 615 1244 598 1251 q 644 1223 632 1236 q 664 1193 657 1210 q 672 1158 672 1176 z "},"Ì":{"ha":436,"x_min":-68,"x_max":331,"o":"m 312 0 l 124 0 l 124 1004 l 312 1004 l 312 0 m 122 1244 q 146 1243 136 1244 q 164 1239 156 1242 q 178 1230 172 1235 q 194 1216 185 1224 l 331 1076 l 195 1076 q 178 1076 185 1076 q 165 1078 171 1076 q 152 1083 158 1080 q 138 1092 146 1087 l -68 1244 l 122 1244 z "},"Í":{"ha":436,"x_min":90,"x_max":488,"o":"m 312 0 l 124 0 l 124 1004 l 312 1004 l 312 0 m 488 1244 l 283 1094 q 268 1085 275 1088 q 255 1079 262 1081 q 241 1076 249 1077 q 224 1076 234 1076 l 90 1076 l 226 1216 q 241 1230 234 1224 q 256 1239 249 1235 q 274 1243 264 1242 q 297 1244 283 1244 l 488 1244 z "},"Î":{"ha":436,"x_min":-33,"x_max":474,"o":"m 312 0 l 124 0 l 124 1004 l 312 1004 l 312 0 m 474 1076 l 344 1076 q 322 1078 334 1076 q 301 1087 309 1081 l 231 1133 q 226 1137 228 1135 q 221 1141 224 1139 q 217 1138 219 1140 q 210 1133 214 1135 l 140 1087 q 120 1078 133 1081 q 97 1076 108 1076 l -33 1076 l 135 1228 l 306 1228 l 474 1076 z "},"Ï":{"ha":436,"x_min":-22,"x_max":464,"o":"m 312 0 l 124 0 l 124 1004 l 312 1004 l 312 0 m 164 1158 q 156 1122 164 1139 q 135 1093 149 1106 q 105 1074 122 1081 q 68 1067 88 1067 q 34 1074 50 1067 q 5 1093 17 1081 q -15 1122 -8 1106 q -22 1158 -22 1139 q -15 1193 -22 1176 q 5 1223 -8 1210 q 34 1244 17 1236 q 68 1251 50 1251 q 105 1244 88 1251 q 135 1223 122 1236 q 156 1193 149 1210 q 164 1158 164 1176 m 464 1158 q 457 1122 464 1139 q 437 1093 449 1106 q 407 1074 424 1081 q 371 1067 390 1067 q 335 1074 352 1067 q 305 1093 318 1081 q 285 1122 292 1106 q 278 1158 278 1139 q 285 1193 278 1176 q 305 1223 292 1210 q 335 1244 318 1236 q 371 1251 352 1251 q 407 1244 390 1251 q 437 1223 424 1236 q 457 1193 449 1210 q 464 1158 464 1176 z "},"Ð":{"ha":1098,"x_min":37,"x_max":1053,"o":"m 37 558 l 162 558 l 162 1004 l 545 1004 q 753 967 659 1004 q 913 864 847 930 q 1017 705 980 797 q 1053 502 1053 613 q 1017 299 1053 392 q 913 140 980 207 q 753 37 847 74 q 545 0 659 0 l 162 0 l 162 452 l 37 452 l 37 558 m 862 502 q 840 650 862 585 q 777 761 818 716 q 677 831 736 807 q 545 856 619 856 l 350 856 l 350 558 l 601 558 l 601 452 l 350 452 l 350 149 l 545 149 q 677 173 619 149 q 777 243 736 197 q 840 354 818 288 q 862 502 862 419 z "},"Ñ":{"ha":1050,"x_min":101,"x_max":949,"o":"m 199 1004 q 220 1003 212 1004 q 235 999 228 1002 q 248 990 242 996 q 262 974 254 984 l 789 303 q 785 350 786 327 q 784 394 784 374 l 784 1004 l 949 1004 l 949 0 l 852 0 q 815 7 830 0 q 787 32 801 14 l 262 701 q 265 657 264 678 q 266 617 266 635 l 266 0 l 101 0 l 101 1004 l 199 1004 l 199 1004 m 622 1180 q 652 1191 640 1180 q 664 1224 663 1201 l 757 1224 q 748 1160 757 1189 q 722 1112 739 1132 q 681 1080 706 1092 q 626 1069 657 1069 q 577 1076 601 1069 q 533 1093 554 1084 q 493 1110 512 1102 q 460 1117 475 1117 q 431 1106 442 1117 q 419 1072 419 1094 l 324 1072 q 333 1135 324 1106 q 360 1185 342 1164 q 401 1217 377 1206 q 456 1228 426 1228 q 505 1221 481 1228 q 550 1204 528 1213 q 589 1188 571 1195 q 622 1180 607 1180 z "},"Ò":{"ha":1110,"x_min":47,"x_max":1065,"o":"m 1065 502 q 1028 298 1065 392 q 924 135 991 203 q 764 27 858 66 q 556 -11 670 -11 q 348 27 442 -11 q 187 135 254 66 q 83 298 120 203 q 47 502 47 392 q 83 707 47 613 q 187 869 120 801 q 348 977 254 938 q 556 1015 442 1015 q 764 976 670 1015 q 924 869 858 938 q 1028 707 991 801 q 1065 502 1065 613 m 873 502 q 851 650 873 585 q 788 762 829 716 q 689 832 747 808 q 556 856 630 856 q 424 832 483 856 q 323 762 365 808 q 260 650 282 716 q 238 502 238 585 q 260 354 238 419 q 323 243 282 288 q 424 173 365 197 q 556 149 483 149 q 689 173 630 149 q 788 243 747 197 q 851 354 829 288 q 873 502 873 419 m 458 1244 q 482 1243 472 1244 q 500 1239 492 1242 q 515 1230 508 1235 q 530 1216 522 1224 l 667 1076 l 531 1076 q 514 1076 522 1076 q 501 1078 507 1076 q 488 1083 494 1080 q 474 1092 482 1087 l 268 1244 l 458 1244 z "},"Ó":{"ha":1110,"x_min":47,"x_max":1065,"o":"m 1065 502 q 1028 298 1065 392 q 924 135 991 203 q 764 27 858 66 q 556 -11 670 -11 q 348 27 442 -11 q 187 135 254 66 q 83 298 120 203 q 47 502 47 392 q 83 707 47 613 q 187 869 120 801 q 348 977 254 938 q 556 1015 442 1015 q 764 976 670 1015 q 924 869 858 938 q 1028 707 991 801 q 1065 502 1065 613 m 873 502 q 851 650 873 585 q 788 762 829 716 q 689 832 747 808 q 556 856 630 856 q 424 832 483 856 q 323 762 365 808 q 260 650 282 716 q 238 502 238 585 q 260 354 238 419 q 323 243 282 288 q 424 173 365 197 q 556 149 483 149 q 689 173 630 149 q 788 243 747 197 q 851 354 829 288 q 873 502 873 419 m 824 1244 l 619 1094 q 605 1085 611 1088 q 591 1079 598 1081 q 577 1076 585 1077 q 560 1076 570 1076 l 426 1076 l 562 1216 q 577 1230 570 1224 q 592 1239 585 1235 q 610 1243 600 1242 q 633 1244 619 1244 l 824 1244 z "},"Ô":{"ha":1110,"x_min":47,"x_max":1065,"o":"m 1065 502 q 1028 298 1065 392 q 924 135 991 203 q 764 27 858 66 q 556 -11 670 -11 q 348 27 442 -11 q 187 135 254 66 q 83 298 120 203 q 47 502 47 392 q 83 707 47 613 q 187 869 120 801 q 348 977 254 938 q 556 1015 442 1015 q 764 976 670 1015 q 924 869 858 938 q 1028 707 991 801 q 1065 502 1065 613 m 873 502 q 851 650 873 585 q 788 762 829 716 q 689 832 747 808 q 556 856 630 856 q 424 832 483 856 q 323 762 365 808 q 260 650 282 716 q 238 502 238 585 q 260 354 238 419 q 323 243 282 288 q 424 173 365 197 q 556 149 483 149 q 689 173 630 149 q 788 243 747 197 q 851 354 829 288 q 873 502 873 419 m 811 1076 l 681 1076 q 658 1078 671 1076 q 638 1087 646 1081 l 568 1133 q 563 1137 565 1135 q 558 1141 560 1139 q 553 1138 556 1140 q 547 1133 551 1135 l 477 1087 q 457 1078 469 1081 q 434 1076 444 1076 l 304 1076 l 472 1228 l 643 1228 l 811 1076 z "},"Õ":{"ha":1110,"x_min":47,"x_max":1065,"o":"m 1065 502 q 1028 298 1065 392 q 924 135 991 203 q 764 27 858 66 q 556 -11 670 -11 q 348 27 442 -11 q 187 135 254 66 q 83 298 120 203 q 47 502 47 392 q 83 707 47 613 q 187 869 120 801 q 348 977 254 938 q 556 1015 442 1015 q 764 976 670 1015 q 924 869 858 938 q 1028 707 991 801 q 1065 502 1065 613 m 873 502 q 851 650 873 585 q 788 762 829 716 q 689 832 747 808 q 556 856 630 856 q 424 832 483 856 q 323 762 365 808 q 260 650 282 716 q 238 502 238 585 q 260 354 238 419 q 323 243 282 288 q 424 173 365 197 q 556 149 483 149 q 689 173 630 149 q 788 243 747 197 q 851 354 829 288 q 873 502 873 419 m 643 1180 q 673 1191 662 1180 q 685 1224 685 1201 l 778 1224 q 769 1160 778 1189 q 744 1112 760 1132 q 703 1080 727 1092 q 647 1069 678 1069 q 599 1076 622 1069 q 555 1093 576 1084 q 515 1110 533 1102 q 482 1117 497 1117 q 452 1106 463 1117 q 440 1072 441 1094 l 346 1072 q 355 1135 346 1106 q 381 1185 364 1164 q 423 1217 399 1206 q 478 1228 447 1228 q 526 1221 503 1228 q 571 1204 550 1213 q 610 1188 592 1195 q 643 1180 628 1180 z "},"Ö":{"ha":1110,"x_min":47,"x_max":1065,"o":"m 1065 502 q 1028 298 1065 392 q 924 135 991 203 q 764 27 858 66 q 556 -11 670 -11 q 348 27 442 -11 q 187 135 254 66 q 83 298 120 203 q 47 502 47 392 q 83 707 47 613 q 187 869 120 801 q 348 977 254 938 q 556 1015 442 1015 q 764 976 670 1015 q 924 869 858 938 q 1028 707 991 801 q 1065 502 1065 613 m 873 502 q 851 650 873 585 q 788 762 829 716 q 689 832 747 808 q 556 856 630 856 q 424 832 483 856 q 323 762 365 808 q 260 650 282 716 q 238 502 238 585 q 260 354 238 419 q 323 243 282 288 q 424 173 365 197 q 556 149 483 149 q 689 173 630 149 q 788 243 747 197 q 851 354 829 288 q 873 502 873 419 m 501 1158 q 493 1122 501 1139 q 472 1093 485 1106 q 442 1074 459 1081 q 405 1067 424 1067 q 370 1074 387 1067 q 342 1093 354 1081 q 322 1122 329 1106 q 315 1158 315 1139 q 322 1193 315 1176 q 342 1223 329 1210 q 370 1244 354 1236 q 405 1251 387 1251 q 442 1244 424 1251 q 472 1223 459 1236 q 493 1193 485 1210 q 501 1158 501 1176 m 801 1158 q 793 1122 801 1139 q 774 1093 786 1106 q 744 1074 761 1081 q 708 1067 727 1067 q 672 1074 689 1067 q 642 1093 655 1081 q 622 1122 629 1106 q 615 1158 615 1139 q 622 1193 615 1176 q 642 1223 629 1210 q 672 1244 655 1236 q 708 1251 689 1251 q 744 1244 727 1251 q 774 1223 761 1236 q 793 1193 786 1210 q 801 1158 801 1176 z "},"×":{"ha":806,"x_min":74,"x_max":728,"o":"m 717 692 l 492 466 l 728 230 l 638 140 l 401 376 l 165 139 l 74 228 l 311 466 l 84 693 l 174 783 l 401 556 l 626 782 l 717 692 z "},"Ø":{"ha":1110,"x_min":47,"x_max":1065,"o":"m 1065 502 q 1028 298 1065 392 q 924 135 991 203 q 764 27 858 66 q 556 -11 670 -11 q 424 3 486 -11 q 308 46 363 18 l 256 -27 q 207 -66 235 -55 q 153 -77 179 -77 l 79 -77 l 215 109 q 91 279 135 178 q 47 502 47 380 q 83 707 47 613 q 187 869 120 801 q 348 977 254 938 q 556 1015 442 1015 q 700 998 633 1015 q 824 947 767 981 l 865 1004 q 881 1026 874 1017 q 898 1040 889 1035 q 917 1048 906 1045 q 942 1050 927 1050 l 1038 1050 l 914 879 q 1025 714 986 810 q 1065 502 1065 617 m 238 502 q 258 359 238 422 q 317 250 278 296 l 726 813 q 556 856 653 856 q 424 832 483 856 q 323 762 365 808 q 260 650 282 716 q 238 502 238 585 m 873 502 q 857 632 873 574 q 809 735 840 690 l 406 181 q 556 149 472 149 q 689 173 630 149 q 788 243 747 197 q 851 354 829 288 q 873 502 873 419 z "},"Ù":{"ha":1011,"x_min":90,"x_max":922,"o":"m 506 151 q 602 169 560 151 q 675 219 645 187 q 720 299 704 252 q 735 403 735 345 l 735 1004 l 922 1004 l 922 403 q 893 237 922 313 q 810 106 865 161 q 679 20 756 51 q 506 -11 602 -11 q 332 20 409 -11 q 201 106 255 51 q 118 237 147 161 q 90 403 90 313 l 90 1004 l 276 1004 l 276 403 q 292 299 276 346 q 337 220 308 253 q 409 169 366 187 q 506 151 451 151 m 407 1244 q 431 1243 421 1244 q 448 1239 440 1242 q 463 1230 456 1235 q 478 1216 470 1224 l 615 1076 l 480 1076 q 463 1076 470 1076 q 449 1078 456 1076 q 437 1083 443 1080 q 423 1092 431 1087 l 217 1244 l 407 1244 z "},"Ú":{"ha":1011,"x_min":90,"x_max":922,"o":"m 506 151 q 602 169 560 151 q 675 219 645 187 q 720 299 704 252 q 735 403 735 345 l 735 1004 l 922 1004 l 922 403 q 893 237 922 313 q 810 106 865 161 q 679 20 756 51 q 506 -11 602 -11 q 332 20 409 -11 q 201 106 255 51 q 118 237 147 161 q 90 403 90 313 l 90 1004 l 276 1004 l 276 403 q 292 299 276 346 q 337 220 308 253 q 409 169 366 187 q 506 151 451 151 m 773 1244 l 567 1094 q 553 1085 560 1088 q 540 1079 547 1081 q 526 1076 533 1077 q 509 1076 519 1076 l 374 1076 l 510 1216 q 526 1230 519 1224 q 541 1239 533 1235 q 558 1243 549 1242 q 582 1244 568 1244 l 773 1244 z "},"Û":{"ha":1011,"x_min":90,"x_max":922,"o":"m 506 151 q 602 169 560 151 q 675 219 645 187 q 720 299 704 252 q 735 403 735 345 l 735 1004 l 922 1004 l 922 403 q 893 237 922 313 q 810 106 865 161 q 679 20 756 51 q 506 -11 602 -11 q 332 20 409 -11 q 201 106 255 51 q 118 237 147 161 q 90 403 90 313 l 90 1004 l 276 1004 l 276 403 q 292 299 276 346 q 337 220 308 253 q 409 169 366 187 q 506 151 451 151 m 759 1076 l 629 1076 q 606 1078 619 1076 q 586 1087 594 1081 l 516 1133 q 511 1137 513 1135 q 506 1141 508 1139 q 501 1138 504 1140 q 495 1133 499 1135 l 425 1087 q 405 1078 417 1081 q 382 1076 392 1076 l 252 1076 l 420 1228 l 591 1228 l 759 1076 z "},"Ü":{"ha":1011,"x_min":90,"x_max":922,"o":"m 506 151 q 602 169 560 151 q 675 219 645 187 q 720 299 704 252 q 735 403 735 345 l 735 1004 l 922 1004 l 922 403 q 893 237 922 313 q 810 106 865 161 q 679 20 756 51 q 506 -11 602 -11 q 332 20 409 -11 q 201 106 255 51 q 118 237 147 161 q 90 403 90 313 l 90 1004 l 276 1004 l 276 403 q 292 299 276 346 q 337 220 308 253 q 409 169 366 187 q 506 151 451 151 m 449 1158 q 441 1122 449 1139 q 420 1093 433 1106 q 390 1074 407 1081 q 353 1067 372 1067 q 318 1074 335 1067 q 290 1093 302 1081 q 270 1122 277 1106 q 263 1158 263 1139 q 270 1193 263 1176 q 290 1223 277 1210 q 318 1244 302 1236 q 353 1251 335 1251 q 390 1244 372 1251 q 420 1223 407 1236 q 441 1193 433 1210 q 449 1158 449 1176 m 749 1158 q 741 1122 749 1139 q 722 1093 734 1106 q 692 1074 709 1081 q 656 1067 675 1067 q 620 1074 637 1067 q 590 1093 603 1081 q 570 1122 577 1106 q 563 1158 563 1139 q 570 1193 563 1176 q 590 1223 577 1210 q 620 1244 603 1236 q 656 1251 637 1251 q 692 1244 675 1251 q 722 1223 709 1236 q 741 1193 734 1210 q 749 1158 749 1176 z "},"Ý":{"ha":909,"x_min":-5,"x_max":913,"o":"m 548 390 l 548 0 l 361 0 l 361 390 l -5 1004 l 160 1004 q 198 992 184 1004 q 222 963 213 981 l 406 627 q 434 570 422 597 q 456 518 446 544 q 476 571 465 544 q 503 627 488 598 l 686 963 q 709 991 694 978 q 748 1004 724 1004 l 913 1004 l 548 390 m 723 1244 l 517 1094 q 503 1085 510 1088 q 490 1079 497 1081 q 476 1076 483 1077 q 459 1076 469 1076 l 324 1076 l 460 1216 q 476 1230 469 1224 q 491 1239 483 1235 q 508 1243 499 1242 q 532 1244 518 1244 l 723 1244 z "},"Þ":{"ha":868,"x_min":108,"x_max":824,"o":"m 294 181 l 294 0 l 108 0 l 108 1004 l 294 1004 l 294 832 l 435 832 q 609 808 535 832 q 731 742 683 785 q 801 641 778 700 q 824 512 824 582 q 800 378 824 439 q 727 274 776 317 q 606 206 678 230 q 435 181 533 181 l 294 181 m 294 327 l 435 327 q 524 340 486 327 q 588 377 563 353 q 625 435 613 401 q 638 512 638 469 q 625 585 638 552 q 588 640 613 617 q 524 675 563 663 q 435 688 486 688 l 294 688 l 294 327 z "},"ß":{"ha":882,"x_min":122,"x_max":838,"o":"m 486 1022 q 625 998 567 1022 q 719 939 683 974 q 772 863 755 903 q 788 786 788 822 q 775 717 788 746 q 741 667 761 689 q 697 630 720 646 q 652 599 673 614 q 618 569 632 585 q 605 533 605 553 q 622 494 605 510 q 665 461 640 477 q 722 427 691 445 q 778 383 752 409 q 821 320 803 357 q 838 230 838 283 q 816 126 838 171 q 757 51 794 81 q 670 5 719 20 q 565 -11 620 -11 q 501 -5 533 -11 q 441 14 470 2 q 387 42 413 26 q 340 76 361 58 l 381 142 q 398 160 388 153 q 424 166 408 166 q 455 157 440 166 q 487 138 469 148 q 526 118 504 127 q 580 109 549 109 q 651 135 624 109 q 678 203 678 161 q 659 257 678 235 q 612 295 640 278 q 551 329 584 313 q 491 367 519 345 q 444 420 463 389 q 425 499 425 451 q 440 567 425 539 q 476 618 454 596 q 524 658 498 640 q 571 694 549 676 q 608 735 593 713 q 622 785 622 756 q 614 829 622 808 q 589 864 606 849 q 544 888 572 879 q 478 897 517 897 q 341 841 388 897 q 294 678 294 785 l 294 0 l 122 0 l 122 683 q 148 819 122 757 q 220 926 173 881 q 334 996 267 971 q 486 1022 401 1022 z "},"à":{"ha":727,"x_min":56,"x_max":650,"o":"m 650 0 l 573 0 q 535 7 549 0 q 514 37 521 15 l 499 88 q 445 45 472 63 q 392 14 419 26 q 333 -5 364 1 q 263 -11 301 -11 q 180 1 218 -11 q 114 38 142 13 q 72 98 87 62 q 56 182 56 134 q 77 261 56 222 q 148 332 99 301 q 279 385 197 364 q 483 408 361 406 l 483 450 q 452 556 483 522 q 365 590 422 590 q 295 581 323 590 q 247 559 267 571 q 209 537 226 547 q 171 527 192 527 q 141 536 153 527 q 121 558 128 545 l 90 613 q 386 726 213 726 q 498 705 449 726 q 581 648 547 685 q 632 561 615 612 q 650 450 650 510 l 650 0 m 317 107 q 365 112 343 107 q 407 126 388 117 q 445 150 427 136 q 483 184 464 165 l 483 304 q 357 291 408 301 q 276 267 307 282 q 233 233 246 253 q 220 191 220 214 q 247 126 220 146 q 317 107 274 107 m 317 1015 q 359 1006 346 1015 q 383 978 373 997 l 483 810 l 385 810 q 353 815 365 810 q 328 834 341 820 l 157 1015 l 317 1015 z "},"á":{"ha":727,"x_min":56,"x_max":650,"o":"m 650 0 l 573 0 q 535 7 549 0 q 514 37 521 15 l 499 88 q 445 45 472 63 q 392 14 419 26 q 333 -5 364 1 q 263 -11 301 -11 q 180 1 218 -11 q 114 38 142 13 q 72 98 87 62 q 56 182 56 134 q 77 261 56 222 q 148 332 99 301 q 279 385 197 364 q 483 408 361 406 l 483 450 q 452 556 483 522 q 365 590 422 590 q 295 581 323 590 q 247 559 267 571 q 209 537 226 547 q 171 527 192 527 q 141 536 153 527 q 121 558 128 545 l 90 613 q 386 726 213 726 q 498 705 449 726 q 581 648 547 685 q 632 561 615 612 q 650 450 650 510 l 650 0 m 317 107 q 365 112 343 107 q 407 126 388 117 q 445 150 427 136 q 483 184 464 165 l 483 304 q 357 291 408 301 q 276 267 307 282 q 233 233 246 253 q 220 191 220 214 q 247 126 220 146 q 317 107 274 107 m 619 1015 l 448 834 q 423 815 435 820 q 391 810 410 810 l 288 810 l 387 978 q 411 1006 397 997 q 453 1015 425 1015 l 619 1015 z "},"â":{"ha":727,"x_min":56,"x_max":650,"o":"m 650 0 l 573 0 q 535 7 549 0 q 514 37 521 15 l 499 88 q 445 45 472 63 q 392 14 419 26 q 333 -5 364 1 q 263 -11 301 -11 q 180 1 218 -11 q 114 38 142 13 q 72 98 87 62 q 56 182 56 134 q 77 261 56 222 q 148 332 99 301 q 279 385 197 364 q 483 408 361 406 l 483 450 q 452 556 483 522 q 365 590 422 590 q 295 581 323 590 q 247 559 267 571 q 209 537 226 547 q 171 527 192 527 q 141 536 153 527 q 121 558 128 545 l 90 613 q 386 726 213 726 q 498 705 449 726 q 581 648 547 685 q 632 561 615 612 q 650 450 650 510 l 650 0 m 317 107 q 365 112 343 107 q 407 126 388 117 q 445 150 427 136 q 483 184 464 165 l 483 304 q 357 291 408 301 q 276 267 307 282 q 233 233 246 253 q 220 191 220 214 q 247 126 220 146 q 317 107 274 107 m 619 811 l 504 811 q 469 824 483 811 l 397 890 q 389 897 393 893 q 382 905 385 900 q 375 897 378 900 q 367 890 371 893 l 293 824 q 278 815 288 819 q 258 811 269 811 l 140 811 l 299 1004 l 460 1004 l 619 811 z "},"ã":{"ha":727,"x_min":56,"x_max":650,"o":"m 650 0 l 573 0 q 535 7 549 0 q 514 37 521 15 l 499 88 q 445 45 472 63 q 392 14 419 26 q 333 -5 364 1 q 263 -11 301 -11 q 180 1 218 -11 q 114 38 142 13 q 72 98 87 62 q 56 182 56 134 q 77 261 56 222 q 148 332 99 301 q 279 385 197 364 q 483 408 361 406 l 483 450 q 452 556 483 522 q 365 590 422 590 q 295 581 323 590 q 247 559 267 571 q 209 537 226 547 q 171 527 192 527 q 141 536 153 527 q 121 558 128 545 l 90 613 q 386 726 213 726 q 498 705 449 726 q 581 648 547 685 q 632 561 615 612 q 650 450 650 510 l 650 0 m 317 107 q 365 112 343 107 q 407 126 388 117 q 445 150 427 136 q 483 184 464 165 l 483 304 q 357 291 408 301 q 276 267 307 282 q 233 233 246 253 q 220 191 220 214 q 247 126 220 146 q 317 107 274 107 m 453 944 q 486 955 474 944 q 498 997 498 967 l 602 997 q 591 926 602 958 q 562 872 581 894 q 517 837 543 849 q 460 825 491 825 q 413 834 435 825 q 373 853 392 843 q 338 873 354 864 q 308 882 322 882 q 276 870 288 882 q 265 828 265 858 l 158 828 q 169 899 158 867 q 199 953 180 931 q 245 988 219 976 q 301 1001 271 1001 q 348 992 326 1001 q 389 972 370 983 q 424 953 408 962 q 453 944 440 944 z "},"ä":{"ha":727,"x_min":56,"x_max":650,"o":"m 650 0 l 573 0 q 535 7 549 0 q 514 37 521 15 l 499 88 q 445 45 472 63 q 392 14 419 26 q 333 -5 364 1 q 263 -11 301 -11 q 180 1 218 -11 q 114 38 142 13 q 72 98 87 62 q 56 182 56 134 q 77 261 56 222 q 148 332 99 301 q 279 385 197 364 q 483 408 361 406 l 483 450 q 452 556 483 522 q 365 590 422 590 q 295 581 323 590 q 247 559 267 571 q 209 537 226 547 q 171 527 192 527 q 141 536 153 527 q 121 558 128 545 l 90 613 q 386 726 213 726 q 498 705 449 726 q 581 648 547 685 q 632 561 615 612 q 650 450 650 510 l 650 0 m 317 107 q 365 112 343 107 q 407 126 388 117 q 445 150 427 136 q 483 184 464 165 l 483 304 q 357 291 408 301 q 276 267 307 282 q 233 233 246 253 q 220 191 220 214 q 247 126 220 146 q 317 107 274 107 m 345 897 q 338 861 345 878 q 316 831 330 844 q 285 811 303 819 q 248 804 267 804 q 212 811 229 804 q 182 831 195 819 q 161 861 169 844 q 153 897 153 878 q 161 935 153 917 q 182 966 169 953 q 212 987 195 979 q 248 994 229 994 q 285 987 267 994 q 316 966 303 979 q 338 935 330 953 q 345 897 345 917 m 605 897 q 597 861 605 878 q 576 831 590 844 q 545 811 563 819 q 508 804 528 804 q 472 811 489 804 q 441 831 454 819 q 421 861 428 844 q 413 897 413 878 q 421 935 413 917 q 441 966 428 953 q 472 987 454 979 q 508 994 489 994 q 545 987 528 994 q 576 966 563 979 q 597 935 590 953 q 605 897 605 917 z "},"å":{"ha":727,"x_min":56,"x_max":650,"o":"m 650 0 l 573 0 q 535 7 549 0 q 514 37 521 15 l 499 88 q 445 45 472 63 q 392 14 419 26 q 333 -5 364 1 q 263 -11 301 -11 q 180 1 218 -11 q 114 38 142 13 q 72 98 87 62 q 56 182 56 134 q 77 261 56 222 q 148 332 99 301 q 279 385 197 364 q 483 408 361 406 l 483 450 q 452 556 483 522 q 365 590 422 590 q 295 581 323 590 q 247 559 267 571 q 209 537 226 547 q 171 527 192 527 q 141 536 153 527 q 121 558 128 545 l 90 613 q 386 726 213 726 q 498 705 449 726 q 581 648 547 685 q 632 561 615 612 q 650 450 650 510 l 650 0 m 317 107 q 365 112 343 107 q 407 126 388 117 q 445 150 427 136 q 483 184 464 165 l 483 304 q 357 291 408 301 q 276 267 307 282 q 233 233 246 253 q 220 191 220 214 q 247 126 220 146 q 317 107 274 107 m 225 920 q 238 978 225 952 q 271 1024 250 1005 q 320 1053 292 1042 q 378 1063 348 1063 q 438 1053 410 1063 q 488 1024 467 1042 q 523 978 510 1005 q 535 920 535 952 q 523 863 535 889 q 488 819 510 838 q 438 791 467 801 q 378 781 410 781 q 320 791 348 781 q 271 819 292 801 q 238 863 250 838 q 225 920 225 889 m 318 920 q 334 876 318 894 q 381 858 351 858 q 426 876 409 858 q 442 920 442 894 q 426 966 442 949 q 381 983 409 983 q 334 966 351 983 q 318 920 318 949 z "},"æ":{"ha":1147,"x_min":56,"x_max":1099,"o":"m 815 724 q 928 700 876 724 q 1018 633 980 677 q 1077 527 1056 590 q 1099 387 1099 465 q 1097 355 1099 367 q 1091 334 1095 342 q 1080 324 1087 327 q 1060 321 1072 321 l 645 321 q 703 170 655 219 q 828 122 751 122 q 905 131 875 122 q 953 151 934 140 q 986 172 973 163 q 1014 181 999 181 q 1035 176 1026 181 q 1049 165 1043 172 l 1094 106 q 1032 50 1066 73 q 961 14 998 28 q 885 -5 924 1 q 811 -10 847 -10 q 670 24 735 -10 q 562 130 604 58 q 510 66 541 92 q 443 22 480 40 q 365 -3 406 5 q 281 -11 323 -11 q 187 2 228 -11 q 117 41 146 15 q 72 104 88 66 q 56 191 56 142 q 77 272 56 231 q 148 346 99 313 q 279 401 197 379 q 483 426 361 423 l 483 450 q 452 558 483 522 q 365 595 422 595 q 295 584 323 595 q 247 561 267 574 q 209 538 226 549 q 171 527 192 527 q 141 536 153 527 q 121 558 128 545 l 90 613 q 218 698 151 669 q 367 726 285 726 q 499 695 448 726 q 578 611 551 665 q 676 693 617 663 q 815 724 735 724 m 483 321 q 357 307 408 317 q 276 280 307 296 q 233 243 246 264 q 220 199 220 222 q 247 129 220 151 q 322 107 274 107 q 385 117 356 107 q 436 150 415 128 q 470 206 458 172 q 483 289 483 241 l 483 321 m 808 601 q 695 555 735 601 q 646 424 655 508 l 947 424 q 938 490 947 458 q 913 547 930 522 q 869 586 896 572 q 808 601 843 601 z "},"ç":{"ha":663,"x_min":44,"x_max":644,"o":"m 281 -158 q 291 -159 286 -158 q 303 -162 297 -160 q 318 -166 310 -165 q 337 -167 326 -167 q 371 -159 360 -167 q 383 -137 383 -150 q 358 -109 383 -117 q 281 -93 333 -100 l 307 -6 q 203 33 251 4 q 119 108 155 62 q 64 217 84 154 q 44 358 44 280 q 66 503 44 436 q 133 619 89 570 q 241 696 176 668 q 390 724 306 724 q 530 698 469 724 q 638 624 590 672 l 592 562 q 577 547 585 552 q 556 541 570 541 q 531 549 543 541 q 501 567 518 557 q 459 585 483 577 q 400 593 435 593 q 321 577 355 593 q 264 530 287 560 q 231 456 242 499 q 219 358 219 413 q 232 256 219 301 q 267 182 244 212 q 322 136 290 151 q 396 120 355 120 q 462 130 437 120 q 505 152 488 140 q 535 175 522 165 q 564 185 548 185 q 595 169 583 185 l 644 106 q 537 24 597 50 q 413 -8 477 -2 l 405 -38 q 492 -80 467 -53 q 517 -141 517 -106 q 505 -183 517 -164 q 470 -215 492 -201 q 417 -235 448 -228 q 348 -242 385 -242 q 295 -238 319 -242 q 246 -226 270 -234 l 262 -174 q 281 -158 266 -158 z "},"è":{"ha":742,"x_min":44,"x_max":694,"o":"m 386 724 q 510 702 453 724 q 608 639 567 681 q 672 538 649 598 q 694 401 694 478 q 693 368 694 381 q 686 348 691 356 q 674 338 682 341 q 655 335 667 335 l 215 335 q 274 174 222 225 q 410 122 325 122 q 482 132 451 122 q 534 153 512 142 q 574 175 557 165 q 607 185 591 185 q 625 181 617 185 q 638 169 633 176 l 688 106 q 624 50 660 73 q 550 14 589 28 q 472 -5 512 1 q 394 -10 432 -10 q 256 14 320 -10 q 145 87 192 39 q 71 207 98 135 q 44 372 44 278 q 67 509 44 444 q 135 620 91 573 q 243 696 179 668 q 386 724 306 724 m 390 601 q 272 558 315 601 q 218 438 230 516 l 540 438 q 531 501 540 472 q 503 553 522 531 q 456 588 485 575 q 390 601 428 601 m 328 1015 q 370 1006 357 1015 q 394 978 384 997 l 494 810 l 396 810 q 364 815 376 810 q 340 834 352 820 l 168 1015 l 328 1015 z "},"é":{"ha":742,"x_min":44,"x_max":694,"o":"m 386 724 q 510 702 453 724 q 608 639 567 681 q 672 538 649 598 q 694 401 694 478 q 693 368 694 381 q 686 348 691 356 q 674 338 682 341 q 655 335 667 335 l 215 335 q 274 174 222 225 q 410 122 325 122 q 482 132 451 122 q 534 153 512 142 q 574 175 557 165 q 607 185 591 185 q 625 181 617 185 q 638 169 633 176 l 688 106 q 624 50 660 73 q 550 14 589 28 q 472 -5 512 1 q 394 -10 432 -10 q 256 14 320 -10 q 145 87 192 39 q 71 207 98 135 q 44 372 44 278 q 67 509 44 444 q 135 620 91 573 q 243 696 179 668 q 386 724 306 724 m 390 601 q 272 558 315 601 q 218 438 230 516 l 540 438 q 531 501 540 472 q 503 553 522 531 q 456 588 485 575 q 390 601 428 601 m 631 1015 l 459 834 q 434 815 446 820 q 402 810 422 810 l 299 810 l 398 978 q 422 1006 408 997 q 464 1015 436 1015 l 631 1015 z "},"ê":{"ha":742,"x_min":44,"x_max":694,"o":"m 386 724 q 510 702 453 724 q 608 639 567 681 q 672 538 649 598 q 694 401 694 478 q 693 368 694 381 q 686 348 691 356 q 674 338 682 341 q 655 335 667 335 l 215 335 q 274 174 222 225 q 410 122 325 122 q 482 132 451 122 q 534 153 512 142 q 574 175 557 165 q 607 185 591 185 q 625 181 617 185 q 638 169 633 176 l 688 106 q 624 50 660 73 q 550 14 589 28 q 472 -5 512 1 q 394 -10 432 -10 q 256 14 320 -10 q 145 87 192 39 q 71 207 98 135 q 44 372 44 278 q 67 509 44 444 q 135 620 91 573 q 243 696 179 668 q 386 724 306 724 m 390 601 q 272 558 315 601 q 218 438 230 516 l 540 438 q 531 501 540 472 q 503 553 522 531 q 456 588 485 575 q 390 601 428 601 m 630 811 l 515 811 q 481 824 494 811 l 408 890 q 400 897 404 893 q 393 905 397 900 q 386 897 390 900 q 378 890 382 893 l 304 824 q 289 815 299 819 q 269 811 280 811 l 151 811 l 310 1004 l 471 1004 l 630 811 z "},"ë":{"ha":742,"x_min":44,"x_max":694,"o":"m 386 724 q 510 702 453 724 q 608 639 567 681 q 672 538 649 598 q 694 401 694 478 q 693 368 694 381 q 686 348 691 356 q 674 338 682 341 q 655 335 667 335 l 215 335 q 274 174 222 225 q 410 122 325 122 q 482 132 451 122 q 534 153 512 142 q 574 175 557 165 q 607 185 591 185 q 625 181 617 185 q 638 169 633 176 l 688 106 q 624 50 660 73 q 550 14 589 28 q 472 -5 512 1 q 394 -10 432 -10 q 256 14 320 -10 q 145 87 192 39 q 71 207 98 135 q 44 372 44 278 q 67 509 44 444 q 135 620 91 573 q 243 696 179 668 q 386 724 306 724 m 390 601 q 272 558 315 601 q 218 438 230 516 l 540 438 q 531 501 540 472 q 503 553 522 531 q 456 588 485 575 q 390 601 428 601 m 356 897 q 349 861 356 878 q 327 831 341 844 q 296 811 314 819 q 259 804 278 804 q 223 811 240 804 q 193 831 206 819 q 172 861 180 844 q 165 897 165 878 q 172 935 165 917 q 193 966 180 953 q 223 987 206 979 q 259 994 240 994 q 296 987 278 994 q 327 966 314 979 q 349 935 341 953 q 356 897 356 917 m 616 897 q 608 861 616 878 q 588 831 601 844 q 557 811 574 819 q 519 804 539 804 q 483 811 500 804 q 452 831 465 819 q 432 861 440 844 q 424 897 424 878 q 432 935 424 917 q 452 966 440 953 q 483 987 465 979 q 519 994 500 994 q 557 987 539 994 q 588 966 574 979 q 608 935 601 953 q 616 897 616 917 z "},"ì":{"ha":376,"x_min":-28,"x_max":297,"o":"m 274 713 l 274 0 l 103 0 l 103 713 l 274 713 m 132 1015 q 174 1006 160 1015 q 198 978 188 997 l 297 810 l 199 810 q 168 815 180 810 q 143 834 156 820 l -28 1015 l 132 1015 z "},"í":{"ha":376,"x_min":103,"x_max":434,"o":"m 274 713 l 274 0 l 103 0 l 103 713 l 274 713 m 434 1015 l 263 834 q 237 815 249 820 q 206 810 225 810 l 103 810 l 201 978 q 226 1006 212 997 q 267 1015 240 1015 l 434 1015 z "},"î":{"ha":376,"x_min":-46,"x_max":433,"o":"m 274 713 l 274 0 l 103 0 l 103 713 l 274 713 m 433 811 l 319 811 q 284 824 297 811 l 211 890 q 204 897 208 893 q 197 905 200 900 q 189 897 193 900 q 182 890 185 893 l 108 824 q 93 815 102 819 q 73 811 83 811 l -46 811 l 113 1004 l 274 1004 l 433 811 z "},"ï":{"ha":376,"x_min":-32,"x_max":419,"o":"m 274 713 l 274 0 l 103 0 l 103 713 l 274 713 m 160 897 q 152 861 160 878 q 131 831 144 844 q 100 811 117 819 q 63 804 82 804 q 27 811 44 804 q -3 831 10 819 q -24 861 -17 844 q -32 897 -32 878 q -24 935 -32 917 q -3 966 -17 953 q 27 987 10 979 q 63 994 44 994 q 100 987 82 994 q 131 966 117 979 q 152 935 144 953 q 160 897 160 917 m 419 897 q 412 861 419 878 q 391 831 404 844 q 360 811 378 819 q 323 804 342 804 q 286 811 303 804 q 256 831 269 819 q 235 861 243 844 q 228 897 228 878 q 235 935 228 917 q 256 966 243 953 q 286 987 269 979 q 323 994 303 994 q 360 987 342 994 q 391 966 378 979 q 412 935 404 953 q 419 897 419 917 z "},"ð":{"ha":789,"x_min":46,"x_max":740,"o":"m 268 738 q 261 760 261 749 q 283 794 261 781 l 335 824 q 289 840 313 833 q 237 856 264 848 q 208 873 219 860 q 197 906 197 885 q 202 935 197 917 l 222 994 q 357 961 292 983 q 480 906 422 940 l 602 985 l 636 929 q 643 908 643 917 q 638 890 643 898 q 623 876 633 881 l 567 844 q 638 765 606 808 q 693 669 670 722 q 728 556 716 617 q 740 422 740 494 q 717 240 740 320 q 649 104 694 160 q 537 19 603 48 q 384 -10 470 -10 q 250 13 312 -10 q 143 80 188 36 q 72 186 98 124 q 46 329 46 249 q 68 451 46 393 q 132 552 91 508 q 232 621 174 595 q 363 647 290 647 q 483 623 428 647 q 581 553 538 599 q 531 680 566 626 q 438 772 497 733 l 300 683 l 268 738 m 388 120 q 463 135 428 120 q 522 182 497 149 q 561 265 547 214 q 578 390 576 317 q 552 439 568 416 q 513 479 535 462 q 462 506 491 496 q 397 516 433 516 q 319 501 353 516 q 263 461 285 487 q 228 401 240 435 q 216 328 216 367 q 230 239 216 277 q 266 174 243 200 q 321 134 290 147 q 388 120 352 120 z "},"ñ":{"ha":790,"x_min":92,"x_max":713,"o":"m 92 0 l 92 713 l 197 713 q 240 681 230 713 l 252 625 q 298 665 274 647 q 348 697 322 683 q 406 717 375 710 q 472 724 436 724 q 576 704 531 724 q 651 648 621 684 q 697 563 681 613 q 713 453 713 513 l 713 0 l 541 0 l 541 453 q 511 555 541 519 q 420 590 481 590 q 337 570 376 590 q 263 515 298 550 l 263 0 l 92 0 m 476 944 q 508 955 497 944 q 520 997 520 967 l 624 997 q 614 926 624 958 q 584 872 603 894 q 539 837 565 849 q 482 825 513 825 q 435 834 457 825 q 395 853 414 843 q 360 873 376 864 q 330 882 344 882 q 298 870 310 882 q 287 828 287 858 l 181 828 q 191 899 181 867 q 222 953 202 931 q 267 988 241 976 q 324 1001 293 1001 q 370 992 349 1001 q 411 972 392 983 q 446 953 430 962 q 476 944 462 944 z "},"ò":{"ha":790,"x_min":42,"x_max":747,"o":"m 396 724 q 541 698 476 724 q 651 625 606 672 q 722 510 697 578 q 747 358 747 442 q 722 205 747 273 q 651 89 697 137 q 541 15 606 41 q 396 -10 476 -10 q 251 15 316 -10 q 139 89 185 41 q 68 205 93 137 q 42 358 42 273 q 68 510 42 442 q 139 625 93 578 q 251 698 185 672 q 396 724 316 724 m 396 122 q 527 181 485 122 q 570 356 570 241 q 527 532 570 472 q 396 592 485 592 q 263 532 306 592 q 219 356 219 471 q 263 182 219 242 q 396 122 306 122 m 335 1015 q 377 1006 363 1015 q 401 978 390 997 l 500 810 l 402 810 q 370 815 383 810 q 346 834 358 820 l 174 1015 l 335 1015 z "},"ó":{"ha":790,"x_min":42,"x_max":747,"o":"m 396 724 q 541 698 476 724 q 651 625 606 672 q 722 510 697 578 q 747 358 747 442 q 722 205 747 273 q 651 89 697 137 q 541 15 606 41 q 396 -10 476 -10 q 251 15 316 -10 q 139 89 185 41 q 68 205 93 137 q 42 358 42 273 q 68 510 42 442 q 139 625 93 578 q 251 698 185 672 q 396 724 316 724 m 396 122 q 527 181 485 122 q 570 356 570 241 q 527 532 570 472 q 396 592 485 592 q 263 532 306 592 q 219 356 219 471 q 263 182 219 242 q 396 122 306 122 m 637 1015 l 465 834 q 440 815 452 820 q 408 810 428 810 l 306 810 l 404 978 q 428 1006 415 997 q 470 1015 442 1015 l 637 1015 z "},"ô":{"ha":790,"x_min":42,"x_max":747,"o":"m 396 724 q 541 698 476 724 q 651 625 606 672 q 722 510 697 578 q 747 358 747 442 q 722 205 747 273 q 651 89 697 137 q 541 15 606 41 q 396 -10 476 -10 q 251 15 316 -10 q 139 89 185 41 q 68 205 93 137 q 42 358 42 273 q 68 510 42 442 q 139 625 93 578 q 251 698 185 672 q 396 724 316 724 m 396 122 q 527 181 485 122 q 570 356 570 241 q 527 532 570 472 q 396 592 485 592 q 263 532 306 592 q 219 356 219 471 q 263 182 219 242 q 396 122 306 122 m 636 811 l 522 811 q 487 824 500 811 l 414 890 q 407 897 410 893 q 399 905 403 900 q 392 897 396 900 q 385 890 388 893 l 310 824 q 295 815 305 819 q 276 811 286 811 l 157 811 l 316 1004 l 477 1004 l 636 811 z "},"õ":{"ha":790,"x_min":42,"x_max":747,"o":"m 396 724 q 541 698 476 724 q 651 625 606 672 q 722 510 697 578 q 747 358 747 442 q 722 205 747 273 q 651 89 697 137 q 541 15 606 41 q 396 -10 476 -10 q 251 15 316 -10 q 139 89 185 41 q 68 205 93 137 q 42 358 42 273 q 68 510 42 442 q 139 625 93 578 q 251 698 185 672 q 396 724 316 724 m 396 122 q 527 181 485 122 q 570 356 570 241 q 527 532 570 472 q 396 592 485 592 q 263 532 306 592 q 219 356 219 471 q 263 182 219 242 q 396 122 306 122 m 471 944 q 503 955 492 944 q 515 997 515 967 l 619 997 q 609 926 619 958 q 579 872 598 894 q 534 837 560 849 q 477 825 508 825 q 431 834 452 825 q 390 853 409 843 q 355 873 372 864 q 325 882 339 882 q 293 870 305 882 q 282 828 282 858 l 176 828 q 186 899 176 867 q 217 953 197 931 q 262 988 236 976 q 319 1001 288 1001 q 366 992 344 1001 q 406 972 388 983 q 441 953 425 962 q 471 944 457 944 z "},"ö":{"ha":790,"x_min":42,"x_max":747,"o":"m 396 724 q 541 698 476 724 q 651 625 606 672 q 722 510 697 578 q 747 358 747 442 q 722 205 747 273 q 651 89 697 137 q 541 15 606 41 q 396 -10 476 -10 q 251 15 316 -10 q 139 89 185 41 q 68 205 93 137 q 42 358 42 273 q 68 510 42 442 q 139 625 93 578 q 251 698 185 672 q 396 724 316 724 m 396 122 q 527 181 485 122 q 570 356 570 241 q 527 532 570 472 q 396 592 485 592 q 263 532 306 592 q 219 356 219 471 q 263 182 219 242 q 396 122 306 122 m 363 897 q 355 861 363 878 q 334 831 347 844 q 302 811 320 819 q 265 804 285 804 q 230 811 247 804 q 199 831 213 819 q 178 861 186 844 q 171 897 171 878 q 178 935 171 917 q 199 966 186 953 q 230 987 213 979 q 265 994 247 994 q 302 987 285 994 q 334 966 320 979 q 355 935 347 953 q 363 897 363 917 m 622 897 q 615 861 622 878 q 594 831 607 844 q 563 811 581 819 q 526 804 545 804 q 489 811 506 804 q 459 831 472 819 q 438 861 446 844 q 431 897 431 878 q 438 935 431 917 q 459 966 446 953 q 489 987 472 979 q 526 994 506 994 q 563 987 545 994 q 594 966 581 979 q 615 935 607 953 q 622 897 622 917 z "},"÷":{"ha":806,"x_min":63,"x_max":741,"o":"m 63 530 l 741 530 l 741 403 l 63 403 l 63 530 m 297 713 q 305 754 297 735 q 326 788 313 774 q 360 810 340 801 q 401 818 379 818 q 442 810 423 818 q 476 788 462 801 q 499 754 490 774 q 507 713 507 735 q 499 672 507 691 q 476 639 490 653 q 442 617 462 625 q 401 609 423 609 q 360 617 379 609 q 326 639 340 625 q 305 672 313 653 q 297 713 297 691 m 297 219 q 305 260 297 240 q 326 293 313 279 q 360 315 340 307 q 401 324 379 324 q 442 315 423 324 q 476 293 462 307 q 499 260 490 279 q 507 219 507 240 q 499 177 507 197 q 476 144 490 158 q 442 123 462 131 q 401 115 423 115 q 360 123 379 115 q 326 144 340 131 q 305 177 313 158 q 297 219 297 197 z "},"ø":{"ha":790,"x_min":30,"x_max":774,"o":"m 655 620 q 723 506 699 572 q 747 358 747 440 q 722 205 747 273 q 651 89 697 137 q 541 15 606 41 q 396 -10 476 -10 q 302 0 346 -10 q 219 29 258 10 l 196 -3 q 148 -42 176 -31 q 93 -53 119 -53 l 30 -53 l 137 92 q 67 207 91 140 q 42 358 42 274 q 68 510 42 442 q 139 625 93 578 q 251 698 185 672 q 396 724 316 724 q 490 713 446 724 q 572 683 535 703 l 611 735 q 628 757 620 748 q 644 771 635 765 q 663 779 653 776 q 689 781 674 781 l 774 781 l 655 620 m 208 356 q 231 219 208 274 l 492 574 q 396 597 453 597 q 257 534 305 597 q 208 356 208 472 m 396 116 q 533 178 485 116 q 581 356 581 241 q 576 431 581 397 q 560 490 570 464 l 300 138 q 396 116 338 116 z "},"ù":{"ha":790,"x_min":77,"x_max":698,"o":"m 249 713 l 249 260 q 279 159 249 194 q 369 123 309 123 q 453 143 414 123 q 526 197 492 163 l 526 713 l 698 713 l 698 0 l 593 0 q 549 31 560 0 l 538 88 q 492 48 515 66 q 441 16 468 29 q 384 -4 415 3 q 317 -11 353 -11 q 214 9 259 -11 q 139 65 169 28 q 93 150 108 101 q 77 260 77 200 l 77 713 l 249 713 m 331 1015 q 373 1006 360 1015 q 397 978 387 997 l 497 810 l 399 810 q 367 815 379 810 q 342 834 355 820 l 171 1015 l 331 1015 z "},"ú":{"ha":790,"x_min":77,"x_max":698,"o":"m 249 713 l 249 260 q 279 159 249 194 q 369 123 309 123 q 453 143 414 123 q 526 197 492 163 l 526 713 l 698 713 l 698 0 l 593 0 q 549 31 560 0 l 538 88 q 492 48 515 66 q 441 16 468 29 q 384 -4 415 3 q 317 -11 353 -11 q 214 9 259 -11 q 139 65 169 28 q 93 150 108 101 q 77 260 77 200 l 77 713 l 249 713 m 633 1015 l 462 834 q 436 815 449 820 q 405 810 424 810 l 302 810 l 401 978 q 425 1006 411 997 q 467 1015 439 1015 l 633 1015 z "},"û":{"ha":790,"x_min":77,"x_max":698,"o":"m 249 713 l 249 260 q 279 159 249 194 q 369 123 309 123 q 453 143 414 123 q 526 197 492 163 l 526 713 l 698 713 l 698 0 l 593 0 q 549 31 560 0 l 538 88 q 492 48 515 66 q 441 16 468 29 q 384 -4 415 3 q 317 -11 353 -11 q 214 9 259 -11 q 139 65 169 28 q 93 150 108 101 q 77 260 77 200 l 77 713 l 249 713 m 633 811 l 518 811 q 483 824 497 811 l 410 890 q 403 897 407 893 q 396 905 399 900 q 389 897 392 900 q 381 890 385 893 l 307 824 q 292 815 301 819 q 272 811 283 811 l 153 811 l 313 1004 l 474 1004 l 633 811 z "},"ü":{"ha":790,"x_min":77,"x_max":698,"o":"m 249 713 l 249 260 q 279 159 249 194 q 369 123 309 123 q 453 143 414 123 q 526 197 492 163 l 526 713 l 698 713 l 698 0 l 593 0 q 549 31 560 0 l 538 88 q 492 48 515 66 q 441 16 468 29 q 384 -4 415 3 q 317 -11 353 -11 q 214 9 259 -11 q 139 65 169 28 q 93 150 108 101 q 77 260 77 200 l 77 713 l 249 713 m 359 897 q 351 861 359 878 q 330 831 344 844 q 299 811 317 819 q 262 804 281 804 q 226 811 243 804 q 196 831 209 819 q 175 861 183 844 q 167 897 167 878 q 175 935 167 917 q 196 966 183 953 q 226 987 209 979 q 262 994 243 994 q 299 987 281 994 q 330 966 317 979 q 351 935 344 953 q 359 897 359 917 m 619 897 q 611 861 619 878 q 590 831 603 844 q 559 811 577 819 q 522 804 542 804 q 485 811 503 804 q 455 831 468 819 q 435 861 442 844 q 427 897 427 878 q 435 935 427 917 q 455 966 442 953 q 485 987 468 979 q 522 994 503 994 q 559 987 542 994 q 590 966 577 979 q 611 935 603 953 q 619 897 619 917 z "},"ý":{"ha":741,"x_min":5,"x_max":733,"o":"m 344 -196 q 325 -223 337 -214 q 288 -233 313 -233 l 160 -233 l 293 53 l 5 713 l 155 713 q 187 703 176 713 q 203 681 198 693 l 356 311 q 369 274 363 293 q 378 235 374 254 q 391 274 384 255 q 405 312 397 292 l 548 681 q 566 703 553 694 q 595 713 579 713 l 733 713 l 344 -196 m 624 1015 l 453 834 q 427 815 440 820 q 396 810 415 810 l 293 810 l 392 978 q 416 1006 402 997 q 458 1015 430 1015 l 624 1015 z "},"þ":{"ha":785,"x_min":92,"x_max":747,"o":"m 92 -233 l 92 1032 l 263 1032 l 263 625 q 359 697 306 670 q 484 724 413 724 q 591 700 542 724 q 674 630 639 676 q 728 517 709 584 q 747 362 747 449 q 726 214 747 282 q 664 96 704 146 q 568 18 624 46 q 441 -10 511 -10 q 385 -5 410 -10 q 338 11 359 1 q 298 37 316 22 q 263 71 280 52 l 263 -233 l 92 -233 m 425 590 q 334 568 372 590 q 263 504 296 545 l 263 185 q 327 134 292 149 q 401 120 361 120 q 471 135 440 120 q 525 179 503 149 q 558 255 547 209 q 570 362 570 300 q 560 468 570 424 q 531 538 550 511 q 486 578 513 565 q 425 590 459 590 z "},"ÿ":{"ha":741,"x_min":5,"x_max":733,"o":"m 344 -196 q 325 -223 337 -214 q 288 -233 313 -233 l 160 -233 l 293 53 l 5 713 l 155 713 q 187 703 176 713 q 203 681 198 693 l 356 311 q 369 274 363 293 q 378 235 374 254 q 391 274 384 255 q 405 312 397 292 l 548 681 q 566 703 553 694 q 595 713 579 713 l 733 713 l 344 -196 m 350 897 q 342 861 350 878 q 321 831 335 844 q 290 811 308 819 q 253 804 272 804 q 217 811 234 804 q 187 831 200 819 q 166 861 174 844 q 158 897 158 878 q 166 935 158 917 q 187 966 174 953 q 217 987 200 979 q 253 994 234 994 q 290 987 272 994 q 321 966 308 979 q 342 935 335 953 q 350 897 350 917 m 610 897 q 602 861 610 878 q 581 831 594 844 q 550 811 568 819 q 513 804 533 804 q 476 811 494 804 q 446 831 459 819 q 426 861 433 844 q 418 897 418 878 q 426 935 418 917 q 446 966 433 953 q 476 987 459 979 q 513 994 494 994 q 550 987 533 994 q 581 966 568 979 q 602 935 594 953 q 610 897 610 917 z "},"ı":{"ha":376,"x_min":103,"x_max":274,"o":"m 274 713 l 274 0 l 103 0 l 103 713 l 274 713 z "},"Œ":{"ha":1502,"x_min":47,"x_max":1441,"o":"m 1441 1004 l 1441 856 l 996 856 l 996 577 l 1347 577 l 1347 433 l 996 433 l 996 149 l 1441 149 l 1441 0 l 830 0 l 830 128 q 688 26 769 63 q 505 -10 606 -10 q 318 28 402 -10 q 173 135 233 67 q 80 298 113 203 q 47 502 47 392 q 80 707 47 613 q 173 869 113 801 q 318 977 233 938 q 505 1015 402 1015 q 688 978 606 1015 q 830 876 769 942 l 830 1004 l 1441 1004 m 808 502 q 789 651 808 585 q 733 764 769 717 q 643 836 696 811 q 524 861 590 861 q 404 836 458 861 q 314 764 351 811 q 257 651 277 717 q 238 502 238 585 q 257 353 238 419 q 314 240 277 287 q 404 169 351 194 q 524 144 458 144 q 643 169 590 144 q 733 240 696 194 q 789 353 769 287 q 808 502 808 419 z "},"œ":{"ha":1215,"x_min":42,"x_max":1167,"o":"m 883 724 q 996 700 944 724 q 1086 633 1048 677 q 1145 527 1124 590 q 1167 387 1167 465 q 1165 355 1167 367 q 1159 334 1163 342 q 1148 324 1155 327 q 1128 321 1140 321 l 713 321 q 771 170 723 219 q 896 122 819 122 q 963 132 935 122 q 1011 153 990 142 q 1049 175 1033 165 q 1082 185 1066 185 q 1113 169 1100 185 l 1163 106 q 1100 50 1134 73 q 1029 14 1066 28 q 953 -5 992 1 q 879 -10 915 -10 q 739 23 804 -10 q 631 129 673 57 q 522 26 589 62 q 366 -10 455 -10 q 236 15 295 -10 q 133 89 176 41 q 66 205 90 137 q 42 358 42 273 q 67 510 42 442 q 134 625 91 578 q 239 698 178 672 q 372 724 299 724 q 523 688 458 724 q 629 586 588 652 q 731 686 667 649 q 883 724 795 724 m 382 122 q 503 181 464 122 q 543 356 543 241 q 503 532 543 472 q 382 592 464 592 q 259 532 299 592 q 219 356 219 471 q 259 181 219 241 q 382 122 298 122 m 876 601 q 763 555 803 601 q 714 424 723 508 l 1015 424 q 1006 490 1015 458 q 981 547 998 522 q 938 586 964 572 q 876 601 911 601 z "},"ˆ":{"ha":443,"x_min":-18,"x_max":461,"o":"m 461 811 l 347 811 q 312 824 325 811 l 239 890 q 232 897 235 893 q 224 905 228 900 q 217 897 221 900 q 210 890 213 893 l 135 824 q 120 815 130 819 q 101 811 111 811 l -18 811 l 141 1004 l 302 1004 l 461 811 z "},"˚":{"ha":443,"x_min":67,"x_max":377,"o":"m 67 920 q 79 978 67 952 q 113 1024 92 1005 q 162 1053 134 1042 q 220 1063 190 1063 q 280 1053 251 1063 q 330 1024 308 1042 q 364 978 351 1005 q 377 920 377 952 q 364 863 377 889 q 330 819 351 838 q 280 791 308 801 q 220 781 251 781 q 162 791 190 781 q 113 819 134 801 q 79 863 92 838 q 67 920 67 889 m 160 920 q 176 876 160 894 q 223 858 192 858 q 267 876 251 858 q 284 920 284 894 q 267 966 284 949 q 223 983 251 983 q 176 966 192 983 q 160 920 160 949 z "},"˜":{"ha":443,"x_min":1,"x_max":444,"o":"m 296 944 q 328 955 317 944 q 340 997 340 967 l 444 997 q 434 926 444 958 q 404 872 423 894 q 359 837 385 849 q 302 825 333 825 q 256 834 277 825 q 215 853 234 843 q 180 873 197 864 q 150 882 164 882 q 118 870 130 882 q 107 828 107 858 l 1 828 q 11 899 1 867 q 42 953 22 931 q 87 988 61 976 q 144 1001 113 1001 q 191 992 169 1001 q 231 972 213 983 q 266 953 250 962 q 296 944 282 944 z "},"–":{"ha":790,"x_min":113,"x_max":676,"o":"m 113 477 l 676 477 l 676 356 l 113 356 l 113 477 z "},"—":{"ha":1169,"x_min":113,"x_max":1056,"o":"m 113 477 l 1056 477 l 1056 356 l 113 356 l 113 477 z "},"‘":{"ha":313,"x_min":68,"x_max":271,"o":"m 115 678 q 68 834 68 756 q 103 967 68 903 q 205 1083 138 1031 l 258 1051 q 268 1041 265 1047 q 271 1029 271 1035 q 268 1017 271 1023 q 262 1008 265 1012 q 243 983 253 997 q 224 953 233 969 q 210 917 216 937 q 205 876 205 898 q 213 825 205 852 q 238 769 220 799 q 244 750 244 760 q 219 719 244 728 l 115 678 z "},"’":{"ha":313,"x_min":60,"x_max":262,"o":"m 215 1064 q 250 986 239 1025 q 262 908 262 947 q 227 776 262 839 q 126 659 192 713 l 72 692 q 63 702 65 696 q 60 713 60 708 q 69 735 60 726 q 88 759 78 746 q 106 789 98 773 q 120 825 115 806 q 125 867 125 844 q 117 917 125 890 q 92 974 110 944 q 85 992 85 983 q 111 1024 85 1015 l 215 1064 z "},"‚":{"ha":313,"x_min":60,"x_max":262,"o":"m 215 202 q 250 124 239 163 q 262 47 262 85 q 227 -86 262 -23 q 126 -203 192 -149 l 72 -170 q 63 -160 65 -166 q 60 -149 60 -154 q 69 -126 60 -135 q 88 -102 78 -116 q 106 -73 98 -89 q 120 -37 115 -56 q 125 5 125 -17 q 117 55 125 28 q 92 112 110 82 q 85 131 85 121 q 111 162 85 153 l 215 202 z "},"“":{"ha":543,"x_min":68,"x_max":501,"o":"m 115 678 q 68 834 68 756 q 103 967 68 903 q 205 1083 138 1031 l 258 1051 q 268 1041 265 1047 q 271 1029 271 1035 q 268 1017 271 1023 q 262 1008 265 1012 q 243 983 253 997 q 224 953 233 969 q 210 917 216 937 q 205 876 205 898 q 213 825 205 852 q 238 769 220 799 q 244 750 244 760 q 219 719 244 728 l 115 678 m 346 678 q 299 834 299 756 q 334 967 299 903 q 435 1083 369 1031 l 489 1051 q 499 1041 496 1047 q 501 1029 501 1035 q 499 1017 501 1023 q 492 1008 496 1012 q 473 983 483 997 q 455 953 463 969 q 441 917 447 937 q 435 876 435 898 q 443 825 435 852 q 469 769 451 799 q 475 750 475 760 q 450 719 475 728 l 346 678 z "},"”":{"ha":543,"x_min":60,"x_max":492,"o":"m 215 1064 q 250 986 239 1025 q 262 908 262 947 q 227 776 262 839 q 126 659 192 713 l 72 692 q 63 702 65 696 q 60 713 60 708 q 69 735 60 726 q 88 759 78 746 q 106 789 98 772 q 120 825 115 806 q 125 867 125 844 q 117 917 125 890 q 92 974 110 944 q 85 992 85 983 q 111 1024 85 1015 l 215 1064 m 445 1064 q 481 986 469 1025 q 492 908 492 947 q 457 776 492 839 q 356 659 422 713 l 303 692 q 293 702 296 696 q 290 713 290 708 q 299 735 290 726 q 318 759 308 746 q 337 789 328 772 q 350 825 345 806 q 356 867 356 844 q 348 917 356 890 q 322 974 340 944 q 316 992 316 983 q 342 1024 316 1015 l 445 1064 z "},"„":{"ha":543,"x_min":60,"x_max":492,"o":"m 215 202 q 250 124 239 163 q 262 47 262 85 q 227 -86 262 -23 q 126 -203 192 -149 l 72 -170 q 63 -160 65 -166 q 60 -149 60 -154 q 69 -126 60 -135 q 88 -103 78 -116 q 106 -73 98 -90 q 120 -37 115 -56 q 125 5 125 -17 q 117 55 125 28 q 92 112 110 82 q 85 131 85 121 q 111 162 85 153 l 215 202 m 445 202 q 481 124 469 163 q 492 47 492 85 q 457 -86 492 -23 q 356 -203 422 -149 l 303 -170 q 293 -160 296 -166 q 290 -149 290 -154 q 299 -126 290 -135 q 318 -103 308 -116 q 337 -73 328 -90 q 350 -37 345 -56 q 356 5 356 -17 q 348 55 356 28 q 322 112 340 82 q 316 131 316 121 q 342 162 316 153 l 445 202 z "},"•":{"ha":806,"x_min":99,"x_max":705,"o":"m 99 412 q 123 529 99 474 q 188 625 147 584 q 284 690 229 667 q 401 714 339 714 q 519 690 464 714 q 616 625 575 667 q 681 529 657 584 q 705 412 705 474 q 681 295 705 350 q 616 200 657 241 q 519 135 575 159 q 401 112 464 112 q 284 135 339 112 q 188 200 229 159 q 123 295 147 241 q 99 412 99 350 z "},"…":{"ha":1053,"x_min":51,"x_max":1003,"o":"m 51 94 q 59 135 51 116 q 81 169 67 155 q 115 191 95 183 q 156 199 134 199 q 197 191 178 199 q 231 169 217 183 q 253 135 244 155 q 261 94 261 116 q 253 53 261 72 q 231 20 244 34 q 197 -2 217 6 q 156 -10 178 -10 q 115 -2 134 -10 q 81 20 95 6 q 59 53 67 34 q 51 94 51 72 m 792 94 q 800 135 792 116 q 823 169 808 155 q 856 191 837 183 q 898 199 876 199 q 939 191 919 199 q 972 169 958 183 q 994 135 986 155 q 1003 94 1003 116 q 994 53 1003 72 q 972 20 986 34 q 939 -2 958 6 q 898 -10 919 -10 q 856 -2 876 -10 q 823 20 837 6 q 800 53 808 34 q 792 94 792 72 m 422 94 q 430 135 422 116 q 452 169 438 155 q 485 191 466 183 q 527 199 505 199 q 568 191 549 199 q 601 169 588 183 q 624 135 615 155 q 632 94 632 116 q 624 53 632 72 q 601 20 615 34 q 568 -2 588 6 q 527 -10 549 -10 q 485 -2 505 -10 q 452 20 466 6 q 430 53 438 34 q 422 94 422 72 z "},"‹":{"ha":446,"x_min":85,"x_max":346,"o":"m 85 363 l 85 385 l 263 660 l 319 633 q 340 617 333 627 q 346 596 346 608 q 337 566 346 581 l 241 403 q 219 374 231 385 q 241 344 230 364 l 337 181 q 346 151 346 165 q 319 114 346 126 l 263 88 l 85 363 z "},"›":{"ha":446,"x_min":100,"x_max":360,"o":"m 183 88 l 126 114 q 106 130 113 120 q 100 151 100 140 q 109 181 100 165 l 205 344 q 227 374 216 364 q 205 403 215 385 l 109 566 q 100 596 100 581 q 126 633 100 621 l 183 660 l 360 385 l 360 363 l 183 88 z "},"⁄":{"ha":494,"x_min":-123,"x_max":619,"o":"m 36 49 q -2 10 18 21 q -49 0 -23 0 l -123 0 l 456 948 q 494 989 472 974 q 547 1004 515 1004 l 619 1004 l 36 49 z "},"€":{"ha":806,"x_min":26,"x_max":792,"o":"m 26 644 l 118 644 q 169 798 134 729 q 253 914 203 866 q 367 988 303 962 q 504 1014 430 1014 q 669 977 601 1014 q 785 876 738 940 l 724 811 q 710 798 717 803 q 688 792 702 792 q 670 797 678 792 q 653 811 663 803 q 631 829 643 819 q 603 847 619 839 q 565 861 587 856 q 512 867 542 867 q 374 810 430 867 q 295 644 317 754 l 644 644 l 644 592 q 631 562 644 576 q 596 549 618 549 l 283 549 q 283 525 283 537 q 283 502 283 514 q 283 485 283 494 q 283 469 283 477 l 578 469 l 578 417 q 565 388 578 401 q 531 374 552 374 l 292 374 q 366 196 311 255 q 503 138 422 138 q 584 151 553 138 q 633 181 614 165 q 665 211 652 198 q 693 225 678 225 q 707 223 701 225 q 718 213 713 220 l 792 145 q 669 30 744 70 q 494 -10 594 -10 q 348 18 413 -10 q 235 95 283 45 q 157 216 188 145 q 114 374 126 287 l 26 374 l 26 469 l 106 469 q 106 485 106 477 q 106 502 106 494 q 106 525 106 514 q 106 549 106 537 l 26 549 l 26 644 z "},"™":{"ha":1008,"x_min":40,"x_max":938,"o":"m 667 809 q 677 784 672 797 q 685 760 681 772 q 694 785 689 772 q 705 809 699 797 l 797 986 q 813 1002 804 999 q 835 1004 821 1004 l 938 1004 l 938 585 l 833 585 l 833 795 l 841 864 l 735 654 q 694 628 722 628 l 678 628 q 637 654 649 628 l 532 860 l 540 795 l 540 585 l 435 585 l 435 1004 l 538 1004 q 561 1002 553 1004 q 576 986 569 1000 l 667 809 m 385 1004 l 385 907 l 272 907 l 272 585 l 153 585 l 153 907 l 40 907 l 40 1004 l 385 1004 z "},"−":{"ha":806,"x_min":94,"x_max":710,"o":"m 94 530 l 710 530 l 710 403 l 94 403 l 94 530 z "}}}
